<svg viewBox="0 0 33 46" fill="none" xmlns="http://www.w3.org/2000/svg">
<path d="M0.434383 35.6889C0.434383 35.6083 0.434383 35.5277 0.434383 35.4471C0.434383 31.6047 0.445049 27.7624 0.420161 23.92C0.41779 23.4684 0.583716 23.1852 0.89542 22.9232C1.60061 22.333 2.34135 21.7961 3.18164 21.411C3.99112 21.04 4.83498 20.7828 5.71675 20.6453C6.18372 20.5718 6.64831 20.5078 7.12357 20.5102C7.97572 20.5138 8.79349 20.6963 9.59942 20.9381C11.421 21.4844 13.1775 22.2181 14.9896 22.7929C16.6999 23.3345 18.4113 23.8738 20.1796 24.1938C20.9393 24.3312 21.7049 24.4427 22.4741 24.5232C23.0892 24.5872 23.7008 24.6785 24.3159 24.7354C24.8729 24.7875 25.4288 24.8421 25.9846 24.9167C26.8474 25.0317 27.7008 25.2012 28.5399 25.4275C29.5413 25.6978 30.5156 26.0438 31.4365 26.5321C31.7908 26.7206 32.1215 26.9422 32.4237 27.203C32.6916 27.4341 32.752 27.7398 32.6975 28.0705C32.4308 29.6752 31.8702 31.1662 30.9387 32.5055C29.7452 34.2204 28.1393 35.3594 26.1245 35.9247C25.1289 36.2032 24.1179 36.3324 23.0856 36.3194C22.3236 36.3099 21.5603 36.3265 20.7994 36.272C18.9126 36.1369 17.0744 35.7778 15.3037 35.0975C13.4738 34.3947 11.6996 33.5627 9.88149 32.8326C9.08031 32.5102 8.28742 32.1547 7.43409 31.9852C6.19794 31.7387 4.99972 31.8358 3.84535 32.3834C3.07972 32.7472 2.41127 33.245 1.82816 33.8471C1.29483 34.3982 0.827864 35.011 0.434383 35.6912V35.6889Z" fill="white"/>
<path d="M16.1251 21.6705C15.3037 21.4809 14.6602 21.0874 14.0723 20.5956C12.9571 19.664 12.1369 18.5073 11.5289 17.1964C11.107 16.2874 10.8142 15.3381 10.6696 14.3437C10.5843 13.7582 10.5298 13.1727 10.5381 12.5801C10.5523 11.5111 10.7182 10.4681 11.0193 9.44296C11.3535 8.30044 11.8181 7.21482 12.4652 6.21452C12.7734 5.73807 13.1277 5.29363 13.5129 4.87052C14.6258 3.64741 15.9662 2.74667 17.4465 2.04148C18.7254 1.4323 20.0694 1.00919 21.4513 0.699853C22.1565 0.542223 22.8676 0.422519 23.5799 0.318223C24.0895 0.243556 24.6074 0.226964 25.1194 0.16889C25.6587 0.107261 26.1991 0.13926 26.7384 0.123853C26.9055 0.119112 26.9707 0.157037 26.9695 0.343111C26.9648 5.55674 26.9648 10.7716 26.9683 15.9852C26.9683 16.1476 26.9304 16.2234 26.7562 16.1902C26.3485 16.1132 25.9313 16.1274 25.5212 16.1156C24.5683 16.0871 23.6131 16.099 22.659 16.1084C21.5449 16.1191 20.4368 16.2044 19.3322 16.3656C18.5559 16.4794 17.7926 16.6359 17.0542 16.899C16.5197 17.0886 16.0148 17.3339 15.6285 17.7653C15.2433 18.1967 15.0288 18.6921 14.9837 19.2836C14.9233 20.08 15.2196 20.7236 15.7185 21.3007C15.8228 21.4216 15.9568 21.5176 16.1274 21.6693L16.1251 21.6705Z" fill="white"/>
<path d="M32.7058 27.0098C32.0314 25.8127 30.9671 25.123 29.7618 24.6027C28.4297 24.0278 27.0252 23.728 25.603 23.491C24.7686 23.3511 23.9295 23.2421 23.0904 23.139C21.7902 22.9801 20.4842 22.8593 19.2065 22.557C18.4587 22.3804 17.7191 22.173 17.0495 21.7701C16.5422 21.4655 16.278 21.0009 16.1571 20.4498C16.035 19.8939 16.1417 19.3641 16.4344 18.877C16.726 18.3899 17.1905 18.1161 17.6919 17.9028C18.3828 17.6089 19.1177 17.4892 19.8596 17.3944C21.1787 17.2249 22.5037 17.245 23.8264 17.2747C24.6501 17.2936 25.475 17.3576 26.2975 17.4311C26.8474 17.4809 27.3962 17.5449 27.9485 17.5804C28.2412 17.5994 28.5328 17.6516 28.822 17.7001C29.1064 17.7476 29.1467 17.7215 29.1467 17.437C29.1467 15.5751 29.1467 13.7132 29.1467 11.8513C29.1467 11.5716 29.2071 11.5218 29.475 11.5787C30.7799 11.8572 31.6759 12.6572 32.3301 13.7843C32.6228 14.288 32.7188 14.813 32.7165 15.395C32.6999 19.1852 32.7082 22.9754 32.7082 26.7656V27.0074L32.7058 27.0098Z" fill="white"/>
<path d="M8.17957 40.1274C8.17957 41.9076 8.17957 43.6877 8.17957 45.4679C8.17957 45.7345 8.16772 45.7428 7.92002 45.661C6.36742 45.1479 4.8895 44.4758 3.53957 43.5455C2.60209 42.8996 1.76179 42.1505 1.16328 41.1644C0.715276 40.4261 0.442683 39.6356 0.430831 38.7573C0.418979 37.923 0.541053 37.1182 0.904905 36.368C1.42876 35.2883 2.29394 34.5855 3.41157 34.1766C4.13454 33.9111 4.88002 33.7689 5.65039 33.8293C6.48831 33.8945 7.28831 34.128 8.05987 34.4599C8.18668 34.5144 8.18194 34.6293 8.18194 34.7443C8.18076 35.901 8.18194 37.059 8.18194 38.2157C8.18194 38.8533 8.18194 39.491 8.18194 40.1298L8.17957 40.1274Z" fill="white"/>
</svg>
