<svg width="30" height="30" viewBox="0 0 30 30" fill="none" xmlns="http://www.w3.org/2000/svg">
<path d="M29.5252 14.0618V15.9875C29.4818 16.3401 29.4468 16.6943 29.3939 17.0453C28.8817 20.4469 27.3854 23.3385 24.8612 25.6775C22.7853 27.6011 20.3455 28.8169 17.5512 29.3011C17.0334 29.3908 16.5105 29.4509 15.9897 29.5249H14.0643C13.7102 29.4815 13.3551 29.4462 13.0025 29.393C9.60027 28.8795 6.69106 27.3968 4.37371 24.8508C1.31214 21.4877 0.0963234 17.5078 0.668027 13.0047C0.971194 10.6168 1.84166 8.42129 3.30429 6.50469C6.76945 1.96349 11.3796 -0.00787908 17.0412 0.672751C20.456 1.08327 23.3385 2.66332 25.6782 5.18908C27.6023 7.26623 28.8181 9.70762 29.302 12.5035C29.3914 13.0204 29.4515 13.5424 29.5252 14.0621V14.0618ZM11.2845 14.1015C11.305 14.0744 11.3132 14.0527 11.328 14.0455C11.708 13.8588 12.0889 13.674 12.4695 13.4885C13.1089 13.1769 13.2782 12.7229 12.9757 12.075C12.3524 10.7402 12.0379 9.33803 12.0259 7.86564C12.0209 7.24923 11.6525 6.87397 11.0399 6.8702C9.98277 6.86358 8.92562 6.8639 7.86879 6.8702C7.24356 6.87366 6.86421 7.26466 6.87523 7.88673C6.9064 9.67205 7.20264 11.4092 7.82629 13.0862C10.0681 19.1124 15.7196 23.0951 22.1469 23.1789C22.7894 23.1874 23.1773 22.8149 23.1798 22.1737C23.1839 21.1354 23.1836 20.0968 23.1798 19.0586C23.1776 18.3896 22.8149 18.0496 22.1441 18.0203C21.5994 17.9964 21.0526 17.9529 20.514 17.8723C19.5963 17.7354 18.7283 17.4275 17.8856 17.0406C17.3441 16.7919 16.8766 16.9666 16.608 17.493C16.5224 17.6608 16.4443 17.8324 16.3615 18.0014C16.2353 18.2589 16.1078 18.5161 15.9759 18.7831C13.9787 17.6177 12.4276 16.0618 11.2845 14.1012V14.1015Z" fill="#545D51"/>
</svg>
