<svg width="36" height="36" viewBox="0 0 36 36" fill="none" xmlns="http://www.w3.org/2000/svg">
<path d="M16.7763 0.0628703C17.6155 0.0628703 18.4544 0.0628703 19.2937 0.0628703C19.8681 0.140278 20.4463 0.197685 21.017 0.297685C24.3092 0.876574 27.2381 2.2388 29.7548 4.44287C32.9181 7.21398 34.9048 10.6673 35.6581 14.8147C35.7718 15.4414 35.8448 16.0751 35.9366 16.7055V19.2229C35.9133 19.3355 35.8833 19.4473 35.8678 19.561C35.7874 20.1481 35.7437 20.7425 35.6274 21.3225C34.7511 25.6932 32.5878 29.304 29.0707 32.0399C24.6944 35.4447 19.7304 36.5925 14.31 35.4688C9.69998 34.5132 6.02702 32.0244 3.33961 28.164C0.481462 24.0584 -0.46039 19.4955 0.452573 14.5851C1.17517 10.6973 3.05665 7.41843 5.97035 4.74917C8.51035 2.4225 11.4841 0.94287 14.8829 0.341759C15.5111 0.230648 16.1452 0.154722 16.7763 0.0625V0.0628703ZM18.0718 9.8425C15.0192 9.8425 11.9666 9.87176 8.9148 9.82843C7.66554 9.81065 6.4848 10.7199 6.49257 12.2651C6.51183 16.0632 6.5122 19.8614 6.49257 23.6595C6.48442 25.2162 7.67442 26.1069 8.91072 26.101C14.9922 26.0703 21.0741 26.0703 27.1555 26.101C28.4259 26.1073 29.5848 25.1936 29.5774 23.664C29.5592 19.8658 29.5589 16.0677 29.5774 12.2695C29.5852 10.7262 28.4152 9.81102 27.1592 9.8288C24.1307 9.87213 21.1011 9.84287 18.0718 9.84287V9.8425Z" fill="#545D51"/>
<path d="M8.35149 12.6078C8.86297 13.0126 9.32482 13.3767 9.78556 13.7426C12.3119 15.7489 14.8374 17.7567 17.3652 19.7615C17.8474 20.1441 18.2411 20.1322 18.7493 19.7289C21.6137 17.4548 24.4774 15.1796 27.3415 12.9052C27.4489 12.82 27.5574 12.7363 27.717 12.6119C27.7259 12.7815 27.737 12.8911 27.737 13.0008C27.7378 16.5315 27.7382 20.0626 27.7374 23.5933C27.7374 24.1441 27.627 24.2574 27.0959 24.2574C21.0478 24.2574 15 24.2574 8.95186 24.2574C8.45667 24.2574 8.33371 24.1374 8.33371 23.6408C8.3326 20.0748 8.33297 16.5089 8.33371 12.943C8.33371 12.8548 8.34297 12.7667 8.35186 12.6074L8.35149 12.6078Z" fill="#545D51"/>
<path d="M10.1937 11.6879H25.9082C25.5578 11.9716 25.2685 12.2097 24.9748 12.4427C22.7404 14.2164 20.5045 15.9886 18.2715 17.7642C18.1356 17.8723 18.0378 17.9586 17.8563 17.8138C15.3437 15.809 12.8252 13.8116 10.3089 11.8119C10.2819 11.7905 10.2615 11.7612 10.1937 11.6875V11.6879Z" fill="#545D51"/>
</svg>
