<svg width="32" height="32" viewBox="0 0 32 32" fill="none" xmlns="http://www.w3.org/2000/svg">
<path d="M14.7887 0.0666504C15.5547 0.0666504 16.321 0.0666504 17.087 0.0666504C17.1873 0.0873171 17.287 0.113984 17.3883 0.127317C17.91 0.196984 18.4387 0.23265 18.9533 0.335984C22.879 1.12565 26.116 3.07365 28.5497 6.25298C31.5277 10.1433 32.5053 14.5367 31.5077 19.3287C30.7233 23.0957 28.7597 26.176 25.719 28.5233C21.9453 31.4367 17.6657 32.442 12.9853 31.59C9.55333 30.9653 6.64967 29.3133 4.28233 26.7503C2.09267 24.3797 0.741999 21.5927 0.249666 18.3973C0.185666 17.9817 0.127666 17.565 0.0666656 17.149C0.0666656 16.3623 0.0666656 15.5753 0.0666656 14.7887C0.112999 14.4433 0.155666 14.0973 0.206666 13.7527C0.657666 10.7147 1.84833 8.00565 3.852 5.67265C6.333 2.78298 9.44767 0.980984 13.2043 0.309317C13.73 0.215317 14.2603 0.146984 14.7887 0.0669837V0.0666504ZM25.0383 15.9687C25.0037 15.969 25.073 15.9683 25.0383 15.9687C24.9843 14.4903 25.071 13.0083 24.9693 11.5333C24.8847 10.304 24.42 9.21198 23.52 8.33032C22.5157 7.34665 21.2637 6.96332 19.912 6.91232C17.1093 6.80632 14.304 6.75165 11.5037 6.96532C10.5203 7.04032 9.60933 7.36932 8.81833 7.98398C7.45867 9.04032 6.95233 10.5057 6.90833 12.1487C6.85333 14.1967 6.84667 16.2467 6.857 18.296C6.86133 19.152 6.894 20.0193 7.03567 20.861C7.36167 22.795 8.45633 24.119 10.351 24.736C11.219 25.0187 12.1183 25.064 13.0173 25.0587C15.4793 25.0443 17.9417 25.0357 20.4023 24.967C21.398 24.939 22.3183 24.5713 23.1177 23.9507C24.4667 22.903 24.9707 21.4493 25.029 19.8177C25.075 18.536 25.0383 17.2517 25.0383 15.9683V15.9687Z" fill="#545D51"/>
<path d="M15.961 8.42965C17.3883 8.47932 18.817 8.49932 20.2417 8.58565C22.0053 8.69265 23.2787 9.93399 23.3453 11.7013C23.4317 13.9857 23.4337 16.2737 23.4347 18.56C23.435 19.3107 23.3987 20.0783 23.2407 20.8083C22.9113 22.331 21.7933 23.293 20.2417 23.346C17.9363 23.4247 15.6283 23.4323 13.3213 23.4327C12.5813 23.4327 11.825 23.3907 11.1053 23.234C9.59933 22.9063 8.64567 21.7943 8.592 20.25C8.51233 17.9653 8.50267 15.6777 8.50167 13.3913C8.50167 12.6307 8.54167 11.853 8.70167 11.1127C9.028 9.60199 10.14 8.67699 11.6797 8.58599C13.1043 8.50199 14.5327 8.47932 15.9613 8.42932L15.961 8.42965ZM15.9627 20.6403C18.5607 20.643 20.6343 18.5783 20.6403 15.9823C20.6463 13.3817 18.5867 11.3063 15.9903 11.2973C13.3763 11.288 11.2963 13.359 11.297 15.97C11.2977 18.567 13.366 20.6373 15.9627 20.64V20.6403ZM20.8523 12.1817C21.444 12.1777 21.9337 11.6843 21.933 11.093C21.9323 10.503 21.44 10.0087 20.8497 10.005C20.2453 10.0013 19.7483 10.5037 19.7563 11.111C19.764 11.704 20.257 12.186 20.8523 12.1817Z" fill="#545D51"/>
<path d="M15.9723 19.0123C17.6583 19.0117 19.01 17.6637 19.012 15.981C19.014 14.2757 17.6673 12.925 15.9657 12.9257C14.2803 12.9263 12.9277 14.275 12.9257 15.9567C12.9237 17.6603 14.2723 19.013 15.9723 19.0123Z" fill="white"/>
<path d="M15.9723 19.0123C14.2723 19.013 12.9237 17.6603 12.9257 15.9567C12.9277 14.275 14.2803 12.926 15.9657 12.9257C17.6677 12.925 19.0143 14.2757 19.012 15.981C19.01 17.6637 17.658 19.0117 15.9723 19.0123Z" fill="#545D51"/>
</svg>
