<svg width="33" height="33" viewBox="0 0 33 33" fill="none" xmlns="http://www.w3.org/2000/svg">
<path d="M16.4657 0.709717C25.2338 0.709717 32.2824 7.78099 32.2798 16.5751C32.2773 25.2916 25.1858 32.3394 16.4328 32.3485C7.74379 32.3571 0.578979 25.1912 0.638923 16.3845C0.697784 7.76908 7.77881 0.709717 16.4657 0.709717ZM6.27009 26.6057C6.38962 26.575 6.45895 26.5609 6.52612 26.54C8.18037 26.0218 9.83678 25.5105 11.486 24.9767C11.7402 24.8944 11.9385 24.9146 12.1692 25.0259C14.0777 25.9481 16.0764 26.28 18.1842 25.9716C22.6281 25.3216 26.0662 21.826 26.5938 17.3324C26.9285 14.4832 26.1478 11.9291 24.2346 9.79274C21.7459 7.01327 18.5916 6.01372 14.9335 6.58824C10.3163 7.31335 6.79406 11.335 6.66659 16.0049C6.61676 17.826 7.07067 19.5276 7.95901 21.1132C8.0612 21.2956 8.07167 21.4433 8.00198 21.6408C7.42384 23.2752 6.8587 24.9143 6.27045 26.6061L6.27009 26.6057Z" fill="#545D51"/>
<path d="M8.84265 24.1931C8.93293 23.9017 9.00624 23.6547 9.0864 23.4102C9.30885 22.7317 9.52732 22.0517 9.76313 21.3779C9.83318 21.1778 9.81043 21.033 9.68729 20.8582C8.53101 19.2152 8.0316 17.3735 8.26596 15.3914C8.63465 12.2728 10.2831 9.98951 13.1316 8.6877C18.0578 6.43618 23.6598 9.18929 24.9677 14.4391C25.8817 18.108 23.9523 22.068 20.3776 23.7218C17.6736 24.9731 14.9906 24.8366 12.3924 23.3633C12.1775 23.2416 12.0009 23.2217 11.7738 23.2946C10.8743 23.5835 9.96968 23.8573 9.0669 24.136C9.01093 24.1534 8.95315 24.1653 8.84265 24.1931ZM18.8407 21.3479C20.5351 21.3573 21.4696 20.5466 21.6534 19.1863C21.6867 18.94 21.5982 18.7894 21.3721 18.689C20.7091 18.3951 20.0479 18.0972 19.3922 17.7877C19.1152 17.657 18.9177 17.7104 18.7407 17.9563C18.5132 18.2727 18.2658 18.5746 18.0308 18.8851C17.9134 19.04 17.7856 19.0812 17.5935 19.0054C16.084 18.4099 14.8822 17.4548 14.0603 16.0392C13.9358 15.8247 13.93 15.6655 14.1102 15.4809C14.3377 15.2476 14.533 14.9826 14.7569 14.7453C14.9238 14.5684 14.9508 14.3936 14.8533 14.1726C14.5612 13.5089 14.2832 12.8394 13.9914 12.1757C13.9473 12.0753 13.8729 11.9341 13.7888 11.9146C13.3602 11.8156 12.8929 11.695 12.5112 11.9756C11.8489 12.4624 11.438 13.12 11.3968 13.9718C11.352 14.8923 11.6488 15.7182 12.1291 16.4758C13.263 18.264 14.7335 19.6983 16.6607 20.6181C17.4479 20.994 18.2561 21.3273 18.8407 21.3472V21.3479Z" fill="#545D51"/>
</svg>
