<svg width="127" height="127" viewBox="0 0 127 127" fill="none" xmlns="http://www.w3.org/2000/svg">
<circle cx="63.5" cy="63.5" r="63.5" fill="url(#paint0_linear_6010_9)"/>
<path d="M46.3928 101.098C45.8011 100.626 45.6658 100.01 45.6848 99.2725C45.7279 97.5411 45.6987 95.8082 45.6987 93.9992C44.1413 93.9992 42.6433 93.9992 41.1445 93.9992C40.7041 93.9992 40.263 94.0168 39.8241 93.9927C39.0685 93.9502 38.6391 93.5165 38.5872 92.7689C38.5726 92.5611 38.577 92.3519 38.577 92.1435C38.577 72.7972 38.577 53.451 38.577 34.1048C38.577 33.9424 38.5733 33.78 38.5799 33.6184C38.6187 32.6996 39.0436 32.2739 39.9704 32.2717C43.1677 32.2644 46.365 32.2688 49.5624 32.2688C49.8154 32.2688 50.0685 32.2688 50.4306 32.2688C50.4306 31.8826 50.4167 31.5227 50.4335 31.1642C50.4716 30.3764 50.9251 29.9098 51.7063 29.9083C56.8033 29.9002 61.901 29.9002 66.9979 29.909C67.7558 29.9105 68.1925 30.3574 68.232 31.113C68.2502 31.4583 68.2349 31.805 68.2349 32.268C68.5136 32.268 68.7557 32.268 68.9978 32.268C72.566 32.268 76.1341 32.2673 79.7016 32.268C80.9005 32.268 81.2918 32.6543 81.2933 33.832C81.2955 35.6555 81.2933 37.4791 81.2933 39.3685C83.1191 39.3685 84.8732 39.3685 86.628 39.3685C88.0748 39.3685 88.4143 39.7109 88.4143 41.1768C88.4143 60.5691 88.4121 79.9614 88.4238 99.3544C88.4238 100.066 88.3097 100.673 87.6901 101.096H46.3928V101.098ZM48.1265 41.8197V98.6844H85.9718V41.8197H48.1265ZM45.6979 91.5502V90.5978C45.6979 74.122 45.6979 57.6468 45.6979 41.1709C45.6979 39.7079 46.0337 39.3693 47.4886 39.3693C57.6613 39.3693 67.834 39.3693 78.0067 39.3693H78.8801V34.6907H68.2802C68.2649 34.8648 68.2341 35.0001 68.2444 35.1325C68.3665 36.7294 67.7697 37.0534 66.2833 37.0358C62.8314 36.9956 59.3781 37.0234 55.9255 37.0227C54.535 37.0227 53.1444 37.0358 51.7546 37.0139C50.8797 37 50.457 36.5458 50.4314 35.6672C50.4226 35.3505 50.4299 35.033 50.4299 34.6951H41.0011V91.5495H45.6987L45.6979 91.5502ZM52.8767 32.2944V34.5942H65.8093V32.2944H52.8767Z" fill="#545D51"/>
<path d="M70.6414 60.7372H63.5256V56.0477H58.7958V48.8726H63.4715V44.1538H70.5939V48.8133H75.3295V56.0228H70.6414V60.7365V60.7372ZM68.2078 53.5958H72.9083V51.2704H68.2151V46.5918H65.8568V51.3209H61.1673V53.6163H65.8919V58.3409H68.2078V53.5958Z" fill="#545D51"/>
<path d="M52.8306 84.4628V77.377H59.907V84.4628H52.8306ZM55.2489 82.0314H57.4806V79.834H55.2489V82.0314Z" fill="#545D51"/>
<path d="M52.8152 93.9665V86.8916C53.0047 86.869 53.181 86.8295 53.3573 86.8287C55.3498 86.8243 57.3417 86.8273 59.3342 86.8243C59.6692 86.8243 59.9794 86.787 59.975 87.2983C59.9567 89.4299 59.9655 91.5607 59.9596 93.6922C59.9596 93.7793 59.9135 93.8656 59.885 93.9665H52.8152ZM55.2072 89.2872C55.2072 89.9843 55.1904 90.6039 55.2211 91.2205C55.2277 91.3464 55.4098 91.5614 55.5195 91.5673C56.1757 91.6002 56.834 91.5834 57.4806 91.5834V89.2872H55.2065H55.2072Z" fill="#545D51"/>
<path d="M59.9391 67.9185V74.9443H52.8409V67.9185H59.9391ZM55.2445 72.54H57.4828V70.2972H55.2445V72.54Z" fill="#545D51"/>
<path d="M64.6923 89.2554H81.2596V91.5859H64.6923V89.2554Z" fill="#545D51"/>
<path d="M81.2582 79.7563V82.1154C80.9992 82.1271 80.7739 82.1468 80.5479 82.1468C75.5022 82.1483 70.4564 82.1373 65.4106 82.1622C64.8013 82.1651 64.5738 82.01 64.636 81.3883C64.6879 80.866 64.647 80.3342 64.647 79.7563H81.2589H81.2582Z" fill="#545D51"/>
<path d="M81.2435 72.5954H64.7055V70.2817H81.2435V72.5954Z" fill="#545D51"/>
<defs>
<linearGradient id="paint0_linear_6010_9" x1="-47.2607" y1="-3.98123e-06" x2="149.986" y2="4.64405" gradientUnits="userSpaceOnUse">
<stop stop-color="#FFEDBE"/>
<stop offset="1" stop-color="#B09E71"/>
</linearGradient>
</defs>
</svg>
