<svg width="127" height="127" viewBox="0 0 127 127" fill="none" xmlns="http://www.w3.org/2000/svg">
<circle cx="63.5" cy="63.5" r="63.5" fill="url(#paint0_linear_6010_10)"/>
<path d="M86.8754 61.2363C86.8754 59.2543 86.8716 57.3991 86.8762 55.5439C86.8815 53.3213 88.4532 51.7412 90.6627 51.732C91.5403 51.7282 92.418 51.7143 93.2956 51.7366C95.1331 51.782 96.7708 53.382 96.7762 55.2219C96.797 62.1908 96.7847 69.1597 96.7831 76.1286C96.7831 76.227 96.7624 76.3261 96.747 76.466H32.3575C32.3575 76.2186 32.3575 75.9488 32.3575 75.6791C32.3575 66.9033 32.3552 58.1276 32.359 49.3519C32.3598 46.4853 34.497 44.3012 37.289 44.2974C40.1333 44.2928 42.2637 46.4646 42.2675 49.3811C42.2714 52.6051 42.2683 55.8298 42.2683 59.0537C42.3313 59.0099 42.3943 58.9661 42.4573 58.9223C42.7932 59.2604 43.2005 59.5517 43.4533 59.9429C45.8388 63.6341 50.9226 64.4671 54.3694 61.745C54.7344 61.4569 55.2816 61.2578 55.745 61.2563C65.7596 61.2286 75.7742 61.2355 85.7887 61.2355H86.8754V61.2363ZM64.6068 71.5191V69.0521H67.0138V66.5913H64.5469V64.1567H62.0861V66.6236H59.6514V69.0844H62.1183V71.5183H64.6068V71.5191Z" fill="#545D51"/>
<path d="M84.2802 59.1255H57.1584C57.1584 56.8491 57.0631 54.605 57.1891 52.374C57.2867 50.6572 58.9652 49.2654 60.6912 49.2592C65.0795 49.2446 69.4677 49.21 73.8552 49.2692C79.0596 49.3384 83.9789 54.021 84.2802 59.1255Z" fill="#545D51"/>
<path d="M71.9715 29.4296C70.6289 29.4296 69.4961 29.4058 68.3656 29.4373C67.5602 29.4604 67.0784 29.9553 67.0584 30.7692C67.03 31.9043 67.0323 33.0409 67.0668 34.1752C67.073 34.3704 67.259 34.6386 67.4373 34.7386C68.8544 35.5294 69.5661 36.7067 69.5307 38.3375C69.5138 39.1114 69.5353 39.8861 69.5261 40.66C69.5015 42.7012 67.8569 44.2989 65.7942 44.2943C63.743 44.2905 62.116 42.6781 62.0976 40.6239C62.0899 39.8238 62.1022 39.0238 62.0953 38.2238C62.0822 36.6875 62.757 35.5424 64.0965 34.8223C64.4792 34.6164 64.5914 34.3927 64.583 33.9854C64.5584 32.8764 64.5692 31.7659 64.5761 30.6562C64.5891 28.585 66.1838 26.9604 68.2365 26.9535C71.5919 26.9419 74.9472 26.9404 78.3026 26.9542C80.2754 26.9627 81.8908 28.5789 81.9162 30.5455C81.9308 31.7068 81.8923 32.8695 81.94 34.0292C81.9507 34.289 82.1621 34.641 82.3865 34.7747C83.6922 35.5547 84.4015 36.6545 84.3977 38.1915C84.3954 39.0177 84.4054 39.8438 84.3954 40.6692C84.3693 42.7066 82.72 44.3012 80.6543 44.2943C78.6384 44.2882 76.9946 42.6873 76.9677 40.6923C76.9561 39.8408 76.9623 38.9885 76.9661 38.1369C76.9723 36.6652 77.6286 35.5501 78.9082 34.86C79.3539 34.6194 79.4654 34.3581 79.4523 33.8986C79.4223 32.8672 79.4607 31.8336 79.4361 30.8014C79.4162 29.9737 78.9527 29.4627 78.1589 29.4389C76.9515 29.4027 75.7419 29.4296 74.4761 29.4296V46.7874H71.9738V29.4281L71.9715 29.4296Z" fill="#545D51"/>
<path d="M49.7045 60.898C46.9033 60.8934 44.7383 58.7031 44.7483 55.8842C44.7575 53.156 46.997 50.9488 49.7406 50.9649C52.4812 50.9811 54.6591 53.1913 54.6584 55.9572C54.6584 58.7124 52.4619 60.9026 49.7045 60.898Z" fill="#545D51"/>
<path d="M71.9908 81.4683V79.0444H74.4531V81.4676C74.7544 81.4676 74.9987 81.4676 75.2431 81.4676C76.9984 81.4676 78.7537 81.4622 80.5083 81.4699C81.4159 81.4737 81.9346 81.9525 81.9162 82.7395C81.8985 83.4857 81.3851 83.9407 80.5175 83.9414C75.665 83.946 70.8126 83.946 65.9602 83.9414C65.0987 83.9407 64.5861 83.4757 64.5746 82.7272C64.5623 81.9394 65.0772 81.473 65.9932 81.4699C67.9729 81.4637 69.9534 81.4676 71.9908 81.4676V81.4683Z" fill="#545D51"/>
<path d="M32.3575 79.0068H42.1407C42.8562 81.5714 41.1009 83.9315 38.478 83.9438C37.7041 83.9476 36.9302 83.9469 36.1555 83.9438C33.9429 83.9346 32.3667 82.3568 32.3575 80.1435C32.356 79.7877 32.3575 79.4318 32.3575 79.0068Z" fill="#545D51"/>
<path d="M86.8754 79.0259H96.6756C97.3119 81.7557 95.595 83.9406 92.8184 83.9444C92.1221 83.9452 91.4251 83.9459 90.7288 83.9444C88.454 83.9375 86.8839 82.3789 86.8754 80.121C86.8739 79.7859 86.8754 79.4509 86.8754 79.0259Z" fill="#545D51"/>
<defs>
<linearGradient id="paint0_linear_6010_10" x1="-47.2607" y1="-3.98123e-06" x2="149.986" y2="4.64405" gradientUnits="userSpaceOnUse">
<stop stop-color="#FFEDBE"/>
<stop offset="1" stop-color="#B09E71"/>
</linearGradient>
</defs>
</svg>
