<svg width="28" height="38" viewBox="0 0 28 38" fill="none" xmlns="http://www.w3.org/2000/svg">
<path d="M13.6729 37.6555C13.3871 37.4575 13.0766 37.288 12.8198 37.058C8.83225 33.4815 4.85368 29.8956 0.867436 26.3178C0.480695 25.9707 0.28988 25.569 0.29201 25.0452C0.301806 22.6817 0.292436 20.3187 0.297973 17.9552C0.300528 16.9377 1.14131 16.2911 2.00679 16.6502C2.24488 16.749 2.45699 16.9317 2.65292 17.1076C5.91679 20.0388 9.17555 22.9752 12.436 25.9102C12.9386 26.3625 13.4425 26.8136 13.9642 27.2821C14.9707 26.377 15.9605 25.4877 16.9495 24.5979C19.7696 22.0611 22.5875 19.5222 25.4101 16.9888C26.0767 16.3908 26.88 16.4018 27.3379 17.0454C27.5083 17.2848 27.6156 17.6238 27.6181 17.9186C27.6399 20.3302 27.6296 22.7422 27.6313 25.1538C27.6313 25.6082 27.4456 25.966 27.1113 26.2663C24.425 28.68 21.7416 31.0967 19.057 33.5121C17.7239 34.712 16.3941 35.9156 15.0525 37.1057C14.8127 37.3186 14.5213 37.4737 14.2539 37.6555H13.672H13.6729Z" fill="#545D51"/>
<path d="M13.971 11.1416C15.4277 9.83149 16.8592 8.54349 18.2903 7.25591C20.6589 5.12458 23.0296 2.99538 25.3944 0.859784C25.8365 0.460692 26.3246 0.273284 26.886 0.530544C27.4448 0.786525 27.6347 1.27762 27.6335 1.87136C27.6284 4.22204 27.6271 6.57273 27.6347 8.92341C27.6364 9.41706 27.4699 9.81104 27.1028 10.1411C23.0207 13.8096 18.9424 17.4828 14.8604 21.1513C14.2892 21.6646 13.6346 21.6629 13.0617 21.1479C8.97961 17.4794 4.90137 13.8067 0.819722 10.1373C0.464073 9.81743 0.292425 9.4341 0.293277 8.95323C0.29924 6.57827 0.29711 4.2033 0.29498 1.82834C0.294555 1.24652 0.502406 0.774599 1.04631 0.527562C1.59363 0.278821 2.07663 0.44834 2.50937 0.838062C6.22685 4.18754 9.94689 7.53362 13.6665 10.8805C13.7555 10.9606 13.8484 11.0369 13.9702 11.1412L13.971 11.1416Z" fill="#545D51"/>
</svg>
