<svg width="127" height="127" viewBox="0 0 127 127" fill="none" xmlns="http://www.w3.org/2000/svg">
<circle cx="63.5" cy="63.5" r="63.5" fill="url(#paint0_linear_6010_11)"/>
<path d="M60.4637 78.1445C59.2114 83.2716 58.006 88.187 56.8122 93.1054C56.2785 95.3045 54.886 96.7634 52.9858 97.0725C49.5943 97.625 46.9083 94.851 47.4803 91.4464C48.5861 84.8663 49.6513 78.2796 50.739 71.6973C51.7061 65.8458 52.6825 59.9958 53.6481 54.1437C53.6958 53.8526 53.6965 53.5522 53.6965 53.256C53.6994 48.9942 53.6965 44.7317 53.6994 40.4698C53.7016 37.5361 55.3193 35.3327 58.1107 34.4877C61.9688 33.3191 65.8298 32.1607 69.693 31.0087C72.3631 30.2128 74.9226 31.4832 75.7293 33.9872C76.5296 36.4709 75.2368 39.003 72.6447 39.9115C69.9617 40.8519 67.2584 41.7359 64.5638 42.6415C63.3866 43.0373 63.1309 43.3739 63.2327 44.5966C63.3064 45.4828 63.4313 46.3668 63.5714 47.2457C63.8372 48.909 64.6829 50.2025 66.0032 51.2685C70.2657 54.7113 74.4835 58.2098 78.7294 61.6735C80.8058 63.3672 81.4262 65.5678 80.3277 67.6304C80.0742 68.1064 79.7218 68.5354 79.378 68.9557C76.726 72.1985 74.0769 75.4442 71.3931 78.6609C70.9981 79.1347 70.9793 79.4973 71.1894 80.0454C72.5465 83.5735 73.9028 87.103 75.1848 90.6585C76.4595 94.193 73.9953 97.4864 70.2339 97.3629C68.2695 97.2979 66.6467 96.0701 65.8963 93.9655C64.8765 91.1048 63.9167 88.2232 62.9316 85.3494C62.1321 83.0167 61.3333 80.6839 60.4623 78.1424L60.4637 78.1445ZM66.4228 62.8197C65.7793 65.5714 66.6243 67.9323 67.5791 70.4038C68.7404 69.0063 69.8086 67.72 70.9078 66.3969C69.4084 65.2009 67.9655 64.0496 66.4228 62.8197Z" fill="#545D51"/>
<path d="M74.1946 40.9941C78.5041 40.9941 81.4696 45.2264 79.8626 49.2203C78.676 52.1684 76.4191 53.9689 73.2131 54.1805C69.095 54.452 66.0487 50.6178 66.9796 46.7271C67.7387 43.5566 70.9468 40.9934 74.1946 40.9941Z" fill="#545D51"/>
<defs>
<linearGradient id="paint0_linear_6010_11" x1="-47.2607" y1="-3.98123e-06" x2="149.986" y2="4.64405" gradientUnits="userSpaceOnUse">
<stop stop-color="#FFEDBE"/>
<stop offset="1" stop-color="#B09E71"/>
</linearGradient>
</defs>
</svg>
