<svg width="27" height="39" viewBox="0 0 27 39" fill="none" xmlns="http://www.w3.org/2000/svg">
<path d="M14.4273 0.468506C15.3084 0.638913 16.2006 0.765922 17.0682 0.988487C18.9526 1.47224 20.6161 2.4051 22.086 3.66643C23.9526 5.26778 25.3126 7.22946 26.0922 9.57097C27.2401 13.0189 27.1131 16.4291 25.4763 19.6748C24.596 21.4199 23.4545 23.0359 22.3918 24.6855C19.5096 29.1603 16.6063 33.6219 13.711 38.0883C13.6397 38.1986 13.5613 38.3045 13.4645 38.4439C13.3726 38.3141 13.2997 38.2193 13.2352 38.1194C9.62082 32.5441 6.0132 26.9645 2.39045 21.3944C0.607147 18.6523 -0.168446 15.6674 0.191082 12.413C0.494869 9.66294 1.56867 7.23145 3.37149 5.13202C4.97642 3.26311 6.94686 1.9094 9.29235 1.1573C10.2129 0.861876 11.1887 0.73845 12.1391 0.537385C12.2586 0.512302 12.3784 0.4912 12.4982 0.468506C13.1412 0.468506 13.7843 0.468506 14.4273 0.468506ZM13.4076 20.573C17.067 20.5487 20.0909 17.7406 20.124 13.9462C20.1562 10.2598 17.2796 7.20199 13.5179 7.16177C9.88838 7.12276 6.84891 10.0157 6.80193 13.8359C6.75694 17.4873 9.60848 20.4719 13.4076 20.5726V20.573Z" fill="#545D51"/>
</svg>
