<svg width="127" height="127" viewBox="0 0 127 127" fill="none" xmlns="http://www.w3.org/2000/svg">
<circle cx="63.5" cy="63.5" r="63.5" fill="url(#paint0_linear_6010_13)"/>
<path d="M46.0142 64.2598C44.9732 63.974 43.9495 63.7775 42.9895 63.413C40.84 62.5955 39.1375 61.1855 37.8865 59.2468C37.4343 58.5455 36.9933 57.8368 36.5538 57.1273C35.794 55.9003 34.8152 54.8878 33.6378 54.0538C31.78 52.7375 31.306 50.7988 32.3343 48.7648C34.2423 44.9915 36.814 41.7395 39.9842 38.945C41.4235 37.6768 42.8238 36.3628 44.203 35.0293C45.0437 34.2163 45.9775 33.7798 47.1647 33.8C49.4365 33.839 51.583 34.364 53.6162 35.354C55.153 36.1025 55.912 37.64 55.6337 39.344C55.2805 41.5085 53.5652 43.2133 51.412 43.5388C49.5752 43.817 48.3767 42.9073 48.001 40.9048C47.4235 41.4358 46.8842 41.8768 46.7882 42.7625C46.5325 45.1228 45.8762 47.3585 44.1715 49.2185C44.7542 49.4143 45.247 49.5628 45.7262 49.745C47.3995 50.3818 48.8372 51.377 50.0612 52.6775C50.4407 53.081 50.8367 53.33 51.4247 53.414C53.9942 53.7808 55.9247 55.1548 57.3235 57.4183C58.1657 56.9998 59.212 57.0508 59.863 56.231C59.8382 56.1493 59.8322 56.1043 59.812 56.066C59.2285 54.9913 58.5595 54.3328 57.1037 54.305C55.2332 54.2698 53.7407 52.514 53.5135 50.708C53.26 48.695 54.313 46.8523 56.1677 46.0655C56.3117 46.0048 56.4587 45.9508 56.6957 45.8578C56.5007 45.2615 56.311 44.675 56.1167 44.0893C54.5395 39.3268 57.2297 34.7195 62.1782 33.9005C63.5867 33.6673 65.0612 33.8188 66.505 33.8143C67.1575 33.812 67.8272 33.7745 68.4587 33.9013C70.0345 34.2185 71.104 35.1763 71.692 36.683C71.776 36.899 71.9657 37.148 72.169 37.2313C74.4902 38.1853 75.589 40.133 75.0835 42.596C74.8592 43.6895 74.4985 44.7545 74.2052 45.8105C74.71 46.0993 75.2275 46.3333 75.6737 46.6633C77.1348 47.744 77.722 49.7135 77.143 51.4498C76.5587 53.2025 74.9357 54.4295 73.1072 54.3928C72.3752 54.3778 71.8675 54.5203 71.5795 55.2463C71.4497 55.5725 71.1903 55.8478 70.9577 56.192C71.59 57.0553 72.658 56.9758 73.4492 57.3868C73.978 56.7553 74.428 56.1313 74.965 55.5935C76.2707 54.287 77.8855 53.5963 79.7035 53.3375C79.9487 53.303 80.2412 53.2055 80.4025 53.0345C82.0757 51.251 84.0272 49.9333 86.4205 49.3228C86.4805 49.3078 86.53 49.25 86.632 49.178C84.8717 47.243 84.3392 44.8468 83.95 42.3665C83.8652 41.825 83.311 41.357 82.882 40.7195C82.4192 43.1068 81.0632 43.9573 78.9077 43.4225C76.3727 42.7933 74.6492 40.043 75.295 37.67C75.5792 36.6268 76.2062 35.8648 77.1647 35.39C79.363 34.3003 81.691 33.6905 84.1457 33.8473C84.8582 33.893 85.6817 34.217 86.215 34.6858C88.4507 36.6538 90.6355 38.684 92.7625 40.7705C95.1317 43.0948 97.0135 45.7955 98.512 48.7588C99.5365 50.7853 99.0647 52.7398 97.2107 54.0508C95.9357 54.9523 94.9232 56.0788 94.1147 57.4108C93.1787 58.9535 92.2622 60.5135 90.8215 61.6738C89.1827 62.9938 88.2062 63.422 84.9475 64.178C84.3925 66.347 83.9087 68.498 83.2847 70.607C82.4897 73.2935 81.4157 75.8923 79.9157 78.2563C78.649 80.252 77.998 82.3993 77.6057 84.6845C77.2742 86.615 76.834 88.526 76.489 90.4543C76.4297 90.785 76.5145 91.2193 76.6945 91.5028C78.3977 94.1893 79.3585 97.1045 79.5092 100.284C79.5175 100.464 79.51 100.645 79.5055 100.825C79.5047 100.867 79.4837 100.909 79.4597 100.994H77.3597C77.2465 98.5085 76.7432 96.1295 75.4727 93.83C74.1287 97.0888 72.1675 99.7843 69.3205 101.918C68.8795 101.333 68.4527 100.768 68.002 100.17C69.8845 98.726 71.3912 97.0153 72.592 94.7825C70.2497 96.0373 67.933 96.7093 65.4347 96.707C62.9245 96.7048 60.5935 96.0605 58.2205 94.7555C59.434 96.998 60.9415 98.7208 62.842 100.169C62.401 100.755 61.9825 101.31 61.5257 101.915C58.7087 99.8195 56.7332 97.1383 55.4162 93.9298C54.4817 95.0533 53.7647 97.664 53.47 100.984H51.352C51.2477 99.6185 51.4915 98.2738 51.8057 96.944C52.2707 94.9753 53.089 93.155 54.175 91.4458C54.343 91.1818 54.4067 90.7685 54.3475 90.4573C53.818 87.671 53.2772 84.8863 52.6765 82.1143C52.5122 81.356 52.243 80.5783 51.841 79.9213C48.8972 75.1145 46.9427 69.9485 46.0495 64.382C46.039 64.3183 46.0098 64.2568 46.0105 64.2598H46.0142ZM65.2165 64.6085C64.6967 65.0045 64.2332 65.3608 63.7652 65.7118C63.6767 65.7778 63.5717 65.8213 63.4285 65.9008C60.8147 62.3023 57.1442 60.188 53.0477 58.7C53.3477 57.9793 53.596 57.3823 53.848 56.7755C52.9368 56.0075 51.9032 55.5943 50.7895 55.5575C49.9255 55.529 49.3645 55.1443 48.8305 54.5578C47.6102 53.2198 46.1912 52.1645 44.4347 51.635C43.912 51.4775 43.3712 51.38 42.739 51.2315C43.2295 53.7058 44.4655 55.4548 46.6262 56.4365C49.003 57.5173 50.6642 59.2288 51.727 61.6018C52.951 64.3355 54.2417 67.0408 55.516 69.752C56.4857 71.8145 58.0697 73.148 60.2912 73.7068C62.008 74.138 63.493 73.9903 64.525 72.2833C64.9907 71.5123 65.9455 71.6263 66.4652 72.4565C67.1822 73.6018 68.2135 74.0435 69.5162 73.8905C72.3032 73.5635 74.2645 72.101 75.4398 69.5555C76.6382 66.9583 77.8997 64.3888 79.0495 61.7705C80.1347 59.3 81.823 57.5083 84.3055 56.402C86.1032 55.601 87.2665 54.1535 87.865 52.2733C87.9617 51.9688 88 51.6463 88.09 51.2143C87.4352 51.3778 86.9102 51.488 86.3972 51.6403C84.4915 52.2058 83.0312 53.4298 81.7172 54.857C81.3317 55.2755 80.9087 55.4953 80.311 55.5245C79.1005 55.5838 77.9762 55.9543 77.0012 56.7725C77.2637 57.4093 77.5165 58.0243 77.7295 58.5403C75.793 59.5483 73.8752 60.446 72.061 61.52C70.2032 62.6195 68.7182 64.181 67.3727 65.921C66.7862 65.4793 66.2327 65.0623 65.6372 64.6138C67.2782 62.366 69.3107 60.6178 71.5097 59.2115C70.7207 58.7233 69.9542 58.2485 69.127 57.7363C66.6917 59.1388 64.1417 59.1253 61.7245 57.7423C60.8875 58.2568 60.1217 58.7278 59.3342 59.2115C61.5407 60.6095 63.5462 62.3608 65.2172 64.6078L65.2165 64.6085ZM56.056 74.0915C55.4657 75.3935 54.9032 76.6693 54.31 77.9308C53.9762 78.6403 53.8907 79.3018 54.3355 80.0128C54.544 80.3458 54.643 80.7635 54.7255 81.1565C55.3592 84.1963 55.9705 87.2413 56.611 90.2803C56.671 90.5653 56.8337 90.872 57.0392 91.0775C61.627 95.6593 69.3078 95.6398 73.8542 91.04C74.0192 90.8735 74.1767 90.647 74.2232 90.425C74.6065 88.5973 74.9365 86.7583 75.3332 84.9335C75.748 83.027 75.9025 81.0493 76.8227 79.2733C76.8842 79.1548 76.894 78.9628 76.843 78.8398C76.1822 77.2468 75.5057 75.6605 74.833 74.0735C71.707 76.001 68.6755 77.1935 65.4257 74.7898C62.1437 77.177 59.1332 75.9965 56.0567 74.0923L56.056 74.0915ZM52.4395 76.4878C53.1085 75.1963 53.767 73.949 54.3925 72.6845C54.4667 72.5345 54.4052 72.266 54.3197 72.0965C54.0175 71.4935 53.6455 70.9243 53.3575 70.3153C52.1042 67.6685 50.848 65.0225 49.639 62.3555C48.8282 60.566 47.5623 59.2963 45.7758 58.4728C43.1388 57.2578 41.461 55.208 40.7447 52.3835C40.6982 52.2005 40.63 52.0228 40.57 51.8383C40.3105 51.9403 40.1065 52.0205 39.868 52.1143C39.5463 51.4693 39.2388 50.8513 38.92 50.213C39.7668 49.748 40.6075 49.3933 41.326 48.8705C43.375 47.381 44.2757 45.245 44.5682 42.7925C44.6425 42.17 44.6163 41.4133 44.9605 40.9693C45.7255 39.9823 46.669 39.1243 47.6057 38.2865C47.794 38.1178 48.3677 38.141 48.601 38.306C49.4372 38.897 50.176 39.611 50.2397 40.7375C50.2705 41.2768 50.539 41.4463 51.0422 41.366C52.2542 41.1748 53.1272 40.3648 53.4077 39.1595C53.6267 38.2175 53.3605 37.6678 52.477 37.2433C50.848 36.461 49.1185 36.0958 47.3245 35.9803C46.693 35.9398 46.2062 36.161 45.7495 36.596C44.3275 37.9498 42.9002 39.3005 41.4303 40.6018C38.5068 43.19 36.1188 46.1878 34.3405 49.667C33.7323 50.8565 33.931 51.518 34.9975 52.3438C35.7438 52.9213 36.5155 53.5138 37.102 54.2398C37.9915 55.34 38.7655 56.54 39.5252 57.7385C41.2397 60.4438 43.6907 61.8388 46.8692 61.9985C47.6462 62.0375 47.9245 62.309 48.0932 63.0695C48.616 65.4178 49.081 67.7833 49.72 70.1C50.3365 72.3358 51.3137 74.4448 52.441 76.4878H52.4395ZM78.3895 76.4533C78.4195 76.4218 78.4585 76.394 78.4795 76.3565C78.5995 76.1398 78.7195 75.9223 78.832 75.7018C80.857 71.732 82.1282 67.5283 82.7575 63.122C82.8797 62.2685 83.1842 62.0368 84.0632 61.9955C86.161 61.8965 88.0952 61.2718 89.5855 59.78C90.5447 58.82 91.3337 57.662 92.0657 56.5085C93.133 54.8278 94.3705 53.342 96.0167 52.2013C96.9227 51.5735 97.0795 50.7853 96.565 49.7728C94.9105 46.5208 92.7347 43.661 90.058 41.183C88.3682 39.6193 86.6897 38.0428 84.9707 36.512C84.661 36.236 84.1787 36.0043 83.7782 36.0065C81.8162 36.02 79.9367 36.4603 78.1742 37.3438C77.5885 37.637 77.3162 38.1335 77.3635 38.7815C77.4617 40.1338 78.5567 41.2475 79.8895 41.3818C80.2922 41.4223 80.5847 41.2843 80.5937 40.8575C80.6147 39.8563 81.208 39.197 81.8785 38.57C82.507 37.982 83.0365 37.97 83.6515 38.5625C84.2207 39.1108 84.8207 39.6388 85.3142 40.25C85.6645 40.6835 85.9405 41.2168 86.1047 41.75C86.2952 42.368 86.3125 43.037 86.4317 43.679C86.9222 46.3145 88.2122 48.3725 90.7037 49.5583C91.1042 49.7488 91.4927 49.9648 91.9412 50.1973C91.6067 50.8663 91.2977 51.4843 90.9805 52.1188C90.7195 52.0175 90.499 51.932 90.2492 51.8345C89.5292 55.1968 87.5545 57.44 84.463 58.7983C83.149 59.3758 82.1927 60.419 81.5417 61.7075C81.1457 62.4913 80.7985 63.2998 80.413 64.0888C79.0885 66.7985 77.7535 69.5023 76.4365 72.2158C76.3735 72.3455 76.3923 72.566 76.4605 72.701C77.0875 73.9475 77.734 75.1843 78.3902 76.4525L78.3895 76.4533ZM58.963 46.82C58.963 49.4368 59.9282 52.4705 61.3622 54.4565C63.4262 57.3133 67.612 57.2533 69.5732 54.3223C71.1032 52.0355 71.8435 49.4915 71.917 46.7495C71.9222 46.5643 71.8907 46.298 71.7707 46.2028C70.897 45.5098 69.9955 44.8505 69.094 44.174C67.6892 46.0888 65.884 46.9183 63.6092 46.8305C62.0807 46.7713 60.5485 46.8193 58.963 46.8193V46.82ZM72.499 43.9685C72.6805 43.1848 72.8747 42.539 72.9745 41.8783C73.186 40.4743 72.3265 39.3973 70.9142 39.233C70.108 39.1393 69.8477 38.885 69.7577 38.1043C69.6047 36.773 68.752 35.9908 67.4087 35.9795C66.0535 35.9683 64.6982 35.9563 63.3437 35.9818C60.7667 36.0298 58.72 37.6153 58.0375 40.0235C57.6265 41.4763 57.994 42.8255 58.4687 44.1838C58.5985 44.555 58.7657 44.6645 59.14 44.6608C60.766 44.6428 62.3927 44.6728 64.018 44.6473C65.6882 44.621 66.8942 43.8508 67.5745 42.302C68.011 41.3075 68.6665 41.123 69.541 41.765C70.4852 42.458 71.419 43.1638 72.4982 43.9693L72.499 43.9685ZM57.649 52.1855C57.3422 50.8603 57.0467 49.5845 56.7505 48.3065C56.008 48.7018 55.5685 49.5418 55.6877 50.321C55.8445 51.3455 56.5187 51.995 57.6482 52.1855H57.649ZM73.2002 52.1803C74.3582 51.998 75.094 51.248 75.1727 50.1913C75.2327 49.3873 74.7385 48.5713 74.0852 48.3515C73.7942 49.61 73.5025 50.8715 73.1995 52.1803H73.2002Z" fill="#545D51"/>
<path d="M72.1195 89.1067C70.6975 88.8712 69.391 88.6455 68.08 88.4407C67.4185 88.3372 66.7217 88.1302 66.6527 87.4185C66.5387 86.2395 66.622 85.0417 66.622 83.8987C68.3222 84.1905 70.018 84.4815 71.7587 84.7807C71.8825 84.024 71.9935 83.346 72.1142 82.611C70.7762 82.38 69.52 82.149 68.2577 81.9487C66.8672 81.7275 66.5095 81.3217 66.508 79.89C66.508 78.9975 66.508 78.105 66.508 77.2192H64.3412C64.3412 77.9017 64.3412 78.5512 64.3412 79.2C64.3412 81.576 64.1957 81.7342 61.8715 82.08C60.8342 82.2345 59.8045 82.4362 58.7267 82.6237C58.8602 83.3932 58.978 84.0712 59.1017 84.7875C60.877 84.48 62.578 84.1852 64.3405 83.8792C64.3405 84.7567 64.3427 85.6522 64.3405 86.5477C64.336 87.7777 63.9182 88.2495 62.7077 88.4452C61.4035 88.6567 60.1022 88.8877 58.7327 89.1217C58.858 89.871 58.9712 90.5482 59.0837 91.2187C61.1447 91.1535 63.8965 90.4642 65.449 89.6407C67.3217 91.0372 69.6295 90.678 71.749 91.329C71.8795 90.5475 71.9927 89.8695 72.1202 89.1045L72.1195 89.1067Z" fill="white"/>
<path d="M72.1195 89.1069C71.992 89.8719 71.8788 90.5499 71.7483 91.3314C69.6288 90.6804 67.321 91.0397 65.4483 89.6432C63.8958 90.4667 61.144 91.1559 59.083 91.2212C58.9713 90.5507 58.8573 89.8734 58.732 89.1242C60.1015 88.8902 61.4028 88.6592 62.707 88.4477C63.9183 88.2512 64.336 87.7802 64.3398 86.5502C64.3428 85.6547 64.3398 84.7584 64.3398 83.8817C62.5773 84.1869 60.8763 84.4817 59.101 84.7899C58.9765 84.0729 58.8588 83.3949 58.726 82.6262C59.8038 82.4379 60.8335 82.2369 61.8708 82.0824C64.1943 81.7359 64.3405 81.5777 64.3405 79.2024C64.3405 78.5529 64.3405 77.9042 64.3405 77.2217H66.5073C66.5073 78.1067 66.5073 78.9992 66.5073 79.8924C66.508 81.3249 66.8658 81.7307 68.257 81.9512C69.5185 82.1514 70.7755 82.3824 72.1135 82.6134C71.9935 83.3484 71.8825 84.0264 71.758 84.7832C70.0173 84.4847 68.3215 84.1929 66.6213 83.9012C66.6213 85.0434 66.538 86.2419 66.652 87.4209C66.721 88.1327 67.4178 88.3404 68.0793 88.4432C69.3895 88.6479 70.6968 88.8737 72.1188 89.1092L72.1195 89.1069Z" fill="#545D51"/>
<defs>
<linearGradient id="paint0_linear_6010_13" x1="-47.2607" y1="-3.98123e-06" x2="149.986" y2="4.64405" gradientUnits="userSpaceOnUse">
<stop stop-color="#FFEDBE"/>
<stop offset="1" stop-color="#B09E71"/>
</linearGradient>
</defs>
</svg>
