<svg width="36" height="31" viewBox="0 0 36 31" fill="none" xmlns="http://www.w3.org/2000/svg">
<path d="M0.06092 5.69485C0.177198 5.24801 0.26392 4.79068 0.414809 4.35551C1.22331 2.02607 3.48159 0.351513 5.94131 0.242624C6.24387 0.229013 6.5472 0.232513 6.85053 0.232124C12.5629 0.231735 18.2753 0.232513 23.9877 0.230957C24.8821 0.230957 25.7474 0.371735 26.575 0.722513C27.1789 0.978401 27.2925 1.49757 26.8363 1.97201C26.5373 2.28312 26.2234 2.58023 25.9224 2.89018C25.6813 3.13868 25.4141 3.21568 25.0676 3.13518C24.7534 3.06207 24.4236 3.02785 24.1005 3.02746C18.1898 3.02123 12.2794 3.02007 6.3687 3.02474C4.63348 3.0259 3.31048 4.05879 2.92003 5.71779C2.84614 6.03162 2.8372 6.36607 2.8372 6.69079C2.83253 12.5206 2.84109 18.3501 2.82864 24.1799C2.82553 25.7075 3.46214 26.8243 4.80809 27.5282C5.32492 27.7985 5.89231 27.8541 6.46942 27.8537C10.8646 27.851 15.2595 27.8522 19.6547 27.8522C21.1469 27.8522 22.639 27.86 24.1312 27.8498C25.7781 27.839 27.0549 26.8636 27.4916 25.2715C27.5826 24.939 27.6141 24.5816 27.6164 24.2351C27.6289 22.5295 27.6277 20.8238 27.6172 19.1181C27.6153 18.7887 27.7191 18.5336 27.9513 18.3085C28.337 17.9351 28.7111 17.5501 29.0915 17.1713C29.3365 16.9271 29.6052 16.7739 29.9649 16.9271C30.3243 17.0803 30.4024 17.3786 30.402 17.7275C30.4009 19.9239 30.4153 22.1203 30.3978 24.3164C30.3752 27.1304 28.745 29.4548 26.148 30.3123C25.5075 30.5238 24.8024 30.6277 24.1265 30.6304C18.1929 30.6545 12.2588 30.651 6.32475 30.6417C3.29103 30.637 0.838698 28.6451 0.175253 25.6822C0.13792 25.515 0.0982534 25.3485 0.0597534 25.1817C0.0597534 18.6861 0.0597534 12.1901 0.0597534 5.69446L0.06092 5.69485Z" fill="#545D51"/>
<path d="M16.6019 16.2547C16.754 16.035 16.8185 15.9036 16.9165 15.8056C21.3977 11.3104 25.8839 6.82068 30.3628 2.32357C30.8846 1.79934 31.4695 1.47423 32.2065 1.71729C32.5347 1.8254 32.8516 2.04395 33.1064 2.28429C33.8359 2.97223 34.5332 3.69518 35.2398 4.40801C36.1113 5.28729 36.1101 6.25912 35.2324 7.13918C30.9313 11.4512 26.6286 15.7616 22.3264 20.0728C20.884 21.518 19.4424 22.9638 17.9992 24.4082C17.0713 25.3368 16.1302 25.3361 15.2011 24.4055C12.2254 21.4246 9.24958 18.4438 6.27497 15.4618C5.34903 14.5335 5.34786 13.5862 6.27108 12.6579C6.96214 11.963 7.65281 11.2676 8.34814 10.577C9.2317 9.69962 10.1895 9.69923 11.0696 10.5793C12.8188 12.3281 14.5653 14.0797 16.3095 15.8336C16.3989 15.9234 16.4572 16.044 16.6019 16.2551V16.2547Z" fill="#545D51"/>
</svg>
