<svg width="127" height="127" viewBox="0 0 127 127" fill="none" xmlns="http://www.w3.org/2000/svg">
<circle cx="63.5" cy="63.5" r="63.5" fill="url(#paint0_linear_6010_14)"/>
<path d="M64.2311 42.3602C67.8329 37.7762 72.4596 34.8242 78.1734 33.6038C79.1422 33.3967 79.8418 33.7389 80.0542 34.5327C80.256 35.2847 79.7547 35.9984 78.7956 36.2064C73.0916 37.4438 68.6471 40.4998 65.4267 45.3673C64.68 46.4962 63.6996 46.4171 62.864 45.194C60.2436 41.3584 56.7885 38.5798 52.4045 37.0251C40.0338 32.6367 26.8436 40.4891 24.7885 53.4518C24.6258 54.4784 24.5645 55.5211 24.4445 56.6633H25.5174C28.6765 56.6633 31.8356 56.6971 34.9938 56.6438C36.0302 56.626 36.6667 56.9718 37.1742 57.8838C38.7645 60.7407 40.4276 63.5584 42.064 66.3895C42.2382 66.6909 42.4249 66.9842 42.6738 67.394C43.4791 65.0393 44.2498 62.7895 45.0178 60.5389C46.8347 55.2144 48.6507 49.8891 50.4676 44.5647C50.5049 44.4544 50.56 44.3495 50.5947 44.2384C50.8116 43.538 51.2907 43.1229 52.0169 43.1878C52.736 43.2518 53.128 43.7291 53.2542 44.4571C53.8871 48.1069 54.536 51.754 55.1814 55.402C56.3245 61.8642 57.4685 68.3273 58.6116 74.7895C58.8898 76.3638 59.1645 77.938 59.4827 79.7504C59.7209 79.3007 59.8694 79.0411 60 78.7718C62.5591 73.4944 65.1085 68.2127 67.6862 62.9442C67.8934 62.5202 68.2178 62.0589 68.6125 61.842C69.4071 61.4064 70.2711 61.9602 70.4534 62.9718C70.992 65.9575 71.5022 68.9478 72.0249 71.9353C72.1947 72.9087 72.368 73.8802 72.584 75.1078C73.5734 72.7522 74.4614 70.6358 75.3511 68.5202C76.6916 65.3309 76.1022 65.7567 79.5716 65.7255C79.9494 65.722 80.3271 65.7255 80.68 65.7255C82.0125 62.1451 84.9822 61.4331 87.0987 61.9513C89.384 62.5113 91.12 64.7433 91.0765 67.1113C91.0294 69.6278 89.1938 71.7958 86.7334 72.2393C84.1334 72.7078 81.8729 71.2882 80.7556 68.4829C80.7022 68.4624 80.6498 68.426 80.5956 68.4233C79.0862 68.3558 78.0457 69.0121 77.4738 70.3922C76.1396 73.5967 74.7894 76.794 73.472 80.0055C73.1538 80.7815 72.7449 81.3673 71.8089 81.2189C70.9556 81.0838 70.76 80.4162 70.6356 79.6829C69.9894 75.858 69.3289 72.0349 68.6694 68.2127C68.64 68.042 68.5734 67.8784 68.4694 67.522C68.2676 67.9184 68.1307 68.1771 68.0027 68.4402C65.4267 73.7424 62.8631 79.0509 60.2542 84.3371C60.0347 84.7815 59.5707 85.2455 59.1174 85.4038C58.3271 85.6784 57.6942 85.1095 57.5156 84.1122C57.0827 81.7007 56.672 79.2855 56.248 76.8722C55.1129 70.4082 53.976 63.9451 52.8382 57.482C52.4542 55.2989 52.0676 53.1158 51.6782 50.9335C51.6382 50.7113 51.5698 50.4944 51.4542 50.034C50.5974 52.5318 49.8178 54.802 49.0409 57.0722C47.4738 61.65 45.9111 66.2295 44.3369 70.8055C43.9974 71.7931 43.3556 72.2251 42.5796 71.8927C42.1938 71.7273 41.8436 71.3282 41.6222 70.9495C39.5129 67.3451 37.4214 63.7309 35.3618 60.098C35.0285 59.5104 34.6614 59.2998 33.9849 59.3104C31.2071 59.3522 28.4276 59.3282 25.6489 59.3282H24.7174C25.0062 62.0189 25.7254 64.4855 27.0711 66.6891C28.1147 68.3967 29.2729 70.098 30.6738 71.5122C40.8196 81.7602 51.0382 91.9353 61.2382 102.13C63.0311 103.922 65.352 103.95 67.1431 102.161C77.2222 92.0944 87.3227 82.0482 97.3458 71.9255C102.216 67.0073 104.268 60.9762 103.602 54.0989C102.727 45.0633 95.4587 37.4491 86.5529 36.0998C85.7449 35.9771 84.9316 35.8927 84.1209 35.7842C83.2951 35.674 82.7849 35.138 82.8098 34.4207C82.8365 33.6731 83.4418 33.1087 84.3014 33.1495C88.0738 33.3327 91.6214 34.3496 94.8534 36.298C101.54 40.3291 105.458 46.2144 106.252 54.0171C107.044 61.7949 104.538 68.49 99.0667 74.01C89.1209 84.0438 79.1049 94.0091 69.1067 103.991C66.1725 106.921 62.2382 106.919 59.2916 103.98C49.1031 93.8162 38.9076 83.658 28.7591 73.4544C23.864 68.5335 21.6285 62.5184 21.8631 55.5967C22.2338 44.658 30.6596 35.114 41.4649 33.4918C50.4925 32.1362 57.9645 35.0287 63.8427 42.0198C63.9174 42.1087 63.9938 42.1975 64.0782 42.2775C64.1174 42.3149 64.176 42.3309 64.2294 42.3584L64.2311 42.3602ZM88.3707 67.0811C88.3822 65.6562 87.2658 64.5273 85.8329 64.5175C84.3991 64.5078 83.2614 65.6216 83.256 67.0411C83.2507 68.4438 84.4071 69.6313 85.792 69.6438C87.1716 69.6562 88.3591 68.4767 88.3707 67.0811Z" fill="#545D51"/>
<defs>
<linearGradient id="paint0_linear_6010_14" x1="-47.2607" y1="-3.98123e-06" x2="149.986" y2="4.64405" gradientUnits="userSpaceOnUse">
<stop stop-color="#FFEDBE"/>
<stop offset="1" stop-color="#B09E71"/>
</linearGradient>
</defs>
</svg>
