<svg width="127" height="127" viewBox="0 0 127 127" fill="none" xmlns="http://www.w3.org/2000/svg">
<circle cx="63.5" cy="63.5" r="63.5" fill="url(#paint0_linear_6010_12)"/>
<path d="M88.2463 97.3141C86.7632 97.3141 85.3653 97.4159 83.9875 97.2912C81.7829 97.0905 79.5811 96.8026 77.3976 96.436C74.0114 95.8676 70.7068 96.1692 67.3775 96.9301C58.7627 98.8981 50.1286 100.781 41.4945 102.667C40.8345 102.81 40.675 103.089 40.6768 103.711C40.6823 105.532 40.983 105.298 38.9865 105.343C38.3558 105.358 38.1432 105.114 38.2 104.52C38.2284 104.224 38.2046 103.923 38.2046 103.488C37.2824 103.63 36.4382 103.778 35.5884 103.887C32.4067 104.29 30.0068 102.342 29.0654 100.507C26.7224 95.9373 25.0486 91.1248 24.3758 86.04C23.9312 82.6814 23.7598 79.2705 23.7029 75.8797C23.6003 69.7326 23.6974 63.5826 23.6699 57.4336C23.636 49.9115 26.2091 43.5095 31.7008 38.3046C32.425 37.619 32.9548 36.7756 33.0978 35.6857C33.2738 34.3382 34.0466 33.2621 35.0522 32.3436C35.2988 32.1181 35.4986 31.734 35.5343 31.4031C35.8643 28.3726 37.9919 26.3999 41.0371 26.3981C42.5991 26.3981 44.1675 26.3898 45.7203 26.5301C47.7049 26.7097 49.2917 27.7144 50.4916 29.2901C50.8023 29.6981 51.0691 29.7851 51.5797 29.6907C52.6238 29.4973 53.2288 29.0005 53.5688 27.9491C54.0657 26.4173 54.7504 24.947 55.4049 23.3263C56.1639 23.6288 56.8844 23.9148 57.6911 24.2356C57.1072 25.7124 56.5471 27.1286 55.987 28.544C55.9467 28.6457 55.8935 28.7447 55.8669 28.8492C55.4223 30.6138 54.491 31.855 52.5183 31.9971C52.39 32.0062 52.2681 32.0896 52.0151 32.1886C52.2553 32.6662 52.4294 33.1502 52.7136 33.5572C58.5023 41.8356 71.4338 41.4717 76.7321 32.8871C76.8568 32.6855 76.9512 32.4655 77.1042 32.1685C76.3452 31.9512 75.6523 31.8018 74.9996 31.5497C74.6137 31.4012 74.1104 31.1684 73.9683 30.8402C73.0333 28.6879 72.1827 26.4989 71.2761 24.2531C72.0617 23.9331 72.7629 23.6481 73.565 23.3208C74.0004 24.3906 74.5358 25.3622 74.7897 26.4026C75.3195 28.5724 76.5662 29.5945 78.7992 30.1032C83.3303 31.1363 87.8357 32.3656 92.2448 33.8359C99.5525 36.2724 103.985 41.4332 105.045 49.0672C105.469 52.1179 105.117 55.307 104.876 58.4136C104.36 65.0768 102.16 71.3642 100.302 77.7222C100.148 78.2502 100.187 78.6114 100.504 79.1275C100.941 79.8388 101.286 80.7307 101.305 81.553C101.356 83.7071 100.7 85.7431 100.074 87.8019C99.2133 90.6344 97.6651 92.7473 94.9792 94.0517C93.7014 94.6723 92.485 95.4258 91.2796 96.1811C91.0284 96.3388 90.8139 96.7641 90.8093 97.0703C90.7672 99.4857 90.7516 101.902 90.7919 104.317C90.8047 105.096 90.5985 105.382 89.7827 105.349C88.107 105.281 88.3004 105.501 88.2922 103.828C88.2821 101.907 88.2858 99.9853 88.2784 98.063C88.2775 97.7706 88.2518 97.4773 88.2436 97.3132L88.2463 97.3141ZM36.902 43.5544C39.0672 43.6479 40.8061 44.4399 42.2865 45.8763C46.714 50.1709 50.7162 54.8166 54.1509 59.9508C58.2063 66.0127 63.06 71.3642 68.6517 76.0466C70.3099 77.4353 71.9737 78.8176 73.6888 80.2476C74.9464 78.9075 76.4103 78.0055 78.2052 77.8643C79.5692 77.7571 80.9524 77.7231 82.3155 77.8221C84.0627 77.9496 85.313 79.3117 85.4303 80.9975C85.5513 82.7345 84.5476 84.1499 82.8453 84.622C82.0808 84.8337 81.3173 85.0702 80.5381 85.205C79.8918 85.3168 79.6031 85.6606 79.4903 86.3297C80.7489 86.8339 81.9846 87.3463 83.234 87.8257C84.7062 88.3895 86.2526 88.5875 87.7523 88.1227C89.1273 87.6956 90.4188 87.0026 91.7563 86.4461C92.276 86.2298 92.5629 85.8842 92.7316 85.3361C93.2403 83.6879 93.8068 82.0571 94.3532 80.42C94.8051 79.0651 95.6888 78.2007 97.1114 77.8707C97.3846 77.8075 97.7302 77.4949 97.8063 77.23C99.0025 73.0738 100.223 68.9222 101.301 64.734C101.851 62.5991 102.066 63.1454 100.205 61.8538C96.1966 59.0708 91.7223 57.5739 86.8787 57.1146C86.2242 57.0523 85.9253 57.232 85.8703 57.9112C85.8153 58.5914 85.6898 59.2697 85.5358 59.9352C85.4056 60.4962 85.61 60.7181 86.1133 60.9802C88.1272 62.0298 90.1026 63.1518 92.0844 64.2619C92.3567 64.415 92.584 64.6487 92.8627 64.8687C92.3338 65.5681 91.8607 66.1924 91.3777 66.8304C91.1192 66.659 90.9349 66.5435 90.758 66.4179C88.1208 64.5451 85.2589 63.1307 82.1578 62.204C79.2997 61.3496 76.3975 60.6191 73.5898 59.6217C67.6773 57.5235 62.5045 54.1254 57.7039 50.1425C57.2007 49.7245 56.7524 49.147 56.4875 48.5502C54.0363 43.0438 51.6273 37.5191 49.2156 31.9952C48.4639 30.2728 47.1907 29.1481 45.3262 28.9702C43.7211 28.8171 42.0885 28.8978 40.4706 28.9446C39.3413 28.9776 38.3806 29.9107 38.332 30.9447C39.4843 30.7779 40.6273 30.612 41.8043 30.4415C41.9483 31.3233 42.0693 32.0631 42.1967 32.8395C41.3845 32.977 40.6558 33.0897 39.9316 33.2254C39.1799 33.3656 38.42 33.4857 37.6848 33.6901C36.9735 33.8881 36.4272 34.3355 35.9377 35.1632C38.0442 34.8818 39.9224 34.6316 41.8282 34.3776C41.9547 35.2833 42.0573 36.0258 42.1655 36.7976C40.125 37.0946 38.1753 37.3742 36.2273 37.6648C34.9358 37.8573 34.0952 38.8079 34.2574 39.9519C36.1668 38.73 38.3357 38.6951 40.4917 38.3587C40.6328 39.2241 40.7538 39.9638 40.8794 40.7365C39.4806 40.9868 38.1478 41.1582 36.8488 41.4736C34.9633 41.9319 33.7973 43.8734 34.1575 45.7911C34.5113 47.6721 36.3758 49.0333 38.2816 48.7849C38.9957 48.6914 39.3816 48.2596 39.5017 47.5455C39.6227 46.8287 39.1983 46.5583 38.629 46.3942C38.0588 46.2301 37.4832 46.0871 36.9029 45.9322V43.5562L36.902 43.5544ZM26.221 67.0348C26.221 69.5089 26.2265 71.7281 26.2201 73.9483C26.2073 78.0357 26.1431 82.1213 26.8728 86.173C27.6886 90.705 29.0508 95.0518 31.1068 99.1722C32.0162 100.995 33.8999 101.896 35.8506 101.463C45.999 99.2098 56.1529 96.9805 66.2858 94.6567C70.2027 93.7584 74.0921 93.301 78.0851 94.06C80.0724 94.4376 82.0873 94.7108 84.103 94.896C87.3095 95.1902 90.2172 94.3102 92.8792 92.4915C96.6577 89.9102 96.7402 89.956 98.0318 85.9484C98.4947 84.512 98.5836 82.9509 98.799 81.4402C98.8769 80.8911 98.5973 80.464 98.0244 80.3485C97.4323 80.2293 97.0133 80.5025 96.7823 81.0534C96.698 81.2551 96.6403 81.4677 96.5706 81.6758C95.9693 83.4679 95.4018 85.2728 94.7437 87.0438C94.5787 87.4866 94.1946 87.9467 93.7867 88.1823C92.6968 88.8102 91.5537 89.3538 90.4042 89.869C88.2656 90.8287 86.0051 91.2036 83.751 90.5235C81.5033 89.8442 79.3299 88.9166 77.1455 88.0421C76.8467 87.9229 76.5744 87.5113 76.4699 87.1786C76.2151 86.3636 78.0585 83.2937 78.8817 83.0636C79.1457 82.9903 79.4152 82.939 79.6801 82.8721C80.5033 82.6621 81.3255 82.4513 82.1478 82.2377C82.7326 82.0855 83.0727 81.7207 82.9636 81.1038C82.8618 80.529 82.4383 80.3164 81.8737 80.3228C80.968 80.3329 80.0614 80.343 79.1558 80.321C77.6799 80.2852 76.491 80.8535 75.5514 81.971C74.5798 83.1269 73.5943 84.2709 72.6483 85.447C71.0689 87.4105 69.0083 88.3198 66.5213 88.2089C62.6851 88.0375 58.8351 87.9651 55.0218 87.5617C50.2322 87.0548 45.4719 86.2674 40.7025 85.5771C39.7382 85.4378 39.3449 84.6953 39.6502 83.7594C39.7354 83.499 39.8408 83.2461 39.9343 82.9885C41.3084 79.2228 42.0454 75.3407 42.1398 71.3285C42.1563 70.6483 41.9088 70.3724 41.3203 70.1414C38.453 69.0139 35.5087 68.155 32.4663 67.6976C30.4441 67.3941 28.3963 67.2603 26.2201 67.0357L26.221 67.0348ZM43.326 56.5976C43.6624 59.52 43.9668 62.3241 44.3123 65.1236C44.8889 69.7921 44.7863 74.4277 43.7009 79.0184C43.3636 80.4447 42.9465 81.8527 42.5487 83.3368C43.0602 83.4257 43.5148 83.5018 43.9686 83.5834C51.4046 84.9208 58.8937 85.6294 66.4553 85.7357C69.242 85.7751 70.6381 84.1416 72.0516 82.1626C71.4429 81.6511 70.8893 81.1634 70.3136 80.7051C64.0573 75.7239 58.3658 70.1964 53.6697 63.6853C51.2469 60.3266 48.8022 56.9817 46.2548 53.7175C44.9311 52.0216 43.3618 50.5156 41.9327 48.9563C41.7484 49.0461 41.6742 49.0562 41.654 49.0947C40.4935 51.3131 38.1505 51.7512 35.7965 50.9611C32.5258 49.8638 30.8538 46.2925 31.9933 42.9549C32.1088 42.6157 32.0556 42.2197 32.0895 41.7156C31.7888 41.8668 31.7293 41.8806 31.6944 41.9172C31.5441 42.0767 31.3938 42.2381 31.2544 42.4067C29.0022 45.1448 27.4732 48.2404 26.7252 51.7045C25.8168 55.912 26.3411 60.18 26.2531 64.4214C26.2522 64.4672 26.3072 64.5131 26.3759 64.6231C31.6798 64.723 36.8653 65.7148 42.028 67.7003C41.6265 63.9676 41.2479 60.4421 40.862 56.8561C41.7301 56.7645 42.4863 56.6847 43.3269 56.5967L43.326 56.5976ZM102.107 60.0415C102.183 59.7849 102.234 59.685 102.24 59.5823C102.419 56.902 102.716 54.2226 102.744 51.5413C102.82 44.4546 98.2325 38.2441 91.4235 36.1761C87.7312 35.0551 83.9884 34.1008 80.2814 33.0283C79.6984 32.8596 79.5142 33.0971 79.2694 33.5151C74.4423 41.7467 64.2893 44.4674 55.976 39.7704C55.7872 39.6641 55.58 39.588 55.1712 39.4028C56.46 42.3444 57.6443 45.0522 58.8397 47.7555C58.913 47.9205 59.0652 48.0635 59.2091 48.1826C64.798 52.8237 70.9461 56.4519 77.9696 58.4768C79.6141 58.9507 81.2806 59.3495 83.0067 59.8005C83.8848 55.2474 84.3258 50.7649 84.3386 46.2136H86.9126C86.7513 48.7006 86.6156 51.1288 86.424 53.5543C86.3452 54.5526 86.347 54.6158 87.3563 54.6956C92.4089 55.098 97.0326 56.7452 101.273 59.5007C101.52 59.6611 101.767 59.8216 102.108 60.0434L102.107 60.0415Z" fill="#545D51"/>
<defs>
<linearGradient id="paint0_linear_6010_12" x1="-47.2607" y1="-3.98123e-06" x2="149.986" y2="4.64405" gradientUnits="userSpaceOnUse">
<stop stop-color="#FFEDBE"/>
<stop offset="1" stop-color="#B09E71"/>
</linearGradient>
</defs>
</svg>
