<svg width="43" height="45" viewBox="0 0 43 45" fill="none" xmlns="http://www.w3.org/2000/svg">
<path d="M21.2584 41.632C11.5571 41.6301 3.67379 33.4399 4.08131 23.8103C4.45862 14.8924 11.5689 6.91516 21.8133 7.19566C32.1035 7.4771 39.0564 16.3242 38.4917 25.6799C37.9552 34.5704 30.3222 41.7061 21.2584 41.632ZM36.5683 24.428C36.6401 16.157 29.8151 9.20921 21.5469 9.13602C12.9615 9.05999 6.08023 15.7689 5.99334 24.3005C5.90787 32.7235 12.7145 39.6746 21.1725 39.7148C29.824 39.7558 36.5707 32.7934 36.5683 24.4275V24.428Z" fill="url(#paint0_linear_6009_7)"/>
<path d="M39.3738 13.9373C38.0667 12.5608 36.7529 11.1772 35.4038 9.75624C35.0799 10.1397 34.8428 10.4207 34.5906 10.7191C34.0245 10.2299 33.5447 9.81574 33.0082 9.35249C33.3411 9.05829 33.6604 8.77638 33.9739 8.49871C32.5676 7.09526 31.2176 5.74849 29.867 4.40124C31.703 2.19643 33.9154 0.980931 36.7728 1.50038C39.6429 2.02218 41.5148 3.77507 42.2019 6.60415C42.9291 9.59946 41.7302 11.961 39.3733 13.9378L39.3738 13.9373Z" fill="url(#paint1_linear_6009_7)"/>
<path d="M7.98564 10.6661C7.74103 10.3605 7.5172 10.0815 7.30422 9.81513C5.89747 11.229 4.55258 12.58 3.20392 13.9357C0.988251 12.1205 -0.212138 9.93035 0.250168 7.11638C0.70964 4.32035 2.37706 2.41919 5.10508 1.65371C8.18445 0.789547 10.6494 1.95452 12.6144 4.30005C11.2921 5.67044 9.96897 7.04177 8.56884 8.49244C8.86492 8.72005 9.20539 8.98166 9.57892 9.26924C9.00234 9.77499 8.53625 10.1835 7.98564 10.6665V10.6661Z" fill="url(#paint2_linear_6009_7)"/>
<path d="M24.1352 0.528809V4.32878H22.2789V5.25009H20.3121V4.35759H18.4383V0.528809H24.1352Z" fill="url(#paint3_linear_6009_7)"/>
<path d="M7.33679 37.5581C8.75771 39.0333 10.3099 40.2309 12.0949 41.1852C12.0066 41.2943 11.9443 41.3869 11.8673 41.4643C11.0768 42.2577 10.2853 43.0505 9.49107 43.8401C8.83043 44.4965 8.05835 44.6447 7.33585 44.2608C6.61713 43.8793 6.30782 43.1563 6.47074 42.2454C6.72762 40.8089 6.9831 39.3719 7.24046 37.9354C7.25887 37.8329 7.29193 37.7333 7.33726 37.5581H7.33679Z" fill="url(#paint4_linear_6009_7)"/>
<path d="M29.8731 41.6416C31.3701 40.606 32.8344 39.5926 34.313 38.5693C34.4627 39.2517 34.6327 40.0134 34.7956 40.777C34.9075 41.3007 35.0119 41.8258 35.1153 42.3509C35.2692 43.1315 34.9321 43.8738 34.2587 44.2464C33.5914 44.6152 32.7981 44.5316 32.2319 43.9862C31.4164 43.1999 30.624 42.3901 29.8731 41.6416Z" fill="url(#paint5_linear_6009_7)"/>
<path d="M34.6813 24.4579C34.6549 31.8836 28.6152 37.8643 21.1758 37.8322C13.8473 37.8006 7.84021 31.7292 7.8794 24.3829C7.92049 16.7503 14.1921 10.9302 21.4761 11.0171C28.7393 11.1035 34.7078 17.1267 34.6818 24.4579H34.6813ZM22.2241 18.6964C22.2241 17.5304 22.2255 16.365 22.2241 15.1991C22.2227 14.3538 21.8784 13.891 21.2664 13.9038C20.6629 13.9165 20.3395 14.3585 20.339 15.184C20.3376 17.5451 20.3328 19.9067 20.3447 22.2678C20.3461 22.5898 20.2639 22.8104 20.0108 23.0309C19.3884 23.572 19.2217 24.4192 19.5348 25.1554C19.845 25.885 20.5699 26.3719 21.3425 26.2963C21.6862 26.2628 21.9087 26.3747 22.1297 26.598C23.1596 27.6393 24.1885 28.6815 25.2336 29.7072C25.4173 29.8875 25.6581 30.0509 25.9013 30.1185C26.3088 30.2313 26.7267 29.9957 26.9076 29.6269C27.1206 29.1924 27.0105 28.8132 26.6838 28.486C25.6175 27.4178 24.5531 26.3473 23.4755 25.2909C23.2474 25.0676 23.126 24.8555 23.161 24.5179C23.2247 23.8969 22.9801 23.3652 22.4994 22.9794C22.2675 22.7929 22.2189 22.596 22.2208 22.3282C22.2293 21.1179 22.2246 19.9071 22.2246 18.6968L22.2241 18.6964Z" fill="url(#paint6_linear_6009_7)"/>
<defs>
<linearGradient id="paint0_linear_6009_7" x1="21.295" y1="7.18848" x2="21.295" y2="41.6326" gradientUnits="userSpaceOnUse">
<stop stop-color="#FFEDBE"/>
<stop offset="1" stop-color="#B09E71"/>
</linearGradient>
<linearGradient id="paint1_linear_6009_7" x1="36.1402" y1="1.3811" x2="36.1402" y2="13.9378" gradientUnits="userSpaceOnUse">
<stop stop-color="#FFEDBE"/>
<stop offset="1" stop-color="#B09E71"/>
</linearGradient>
<linearGradient id="paint2_linear_6009_7" x1="6.38315" y1="1.3689" x2="6.38315" y2="13.9357" gradientUnits="userSpaceOnUse">
<stop stop-color="#FFEDBE"/>
<stop offset="1" stop-color="#B09E71"/>
</linearGradient>
<linearGradient id="paint3_linear_6009_7" x1="21.2867" y1="0.528809" x2="21.2867" y2="5.25009" gradientUnits="userSpaceOnUse">
<stop stop-color="#FFEDBE"/>
<stop offset="1" stop-color="#B09E71"/>
</linearGradient>
<linearGradient id="paint4_linear_6009_7" x1="9.26158" y1="37.5581" x2="9.26158" y2="44.4697" gradientUnits="userSpaceOnUse">
<stop stop-color="#FFEDBE"/>
<stop offset="1" stop-color="#B09E71"/>
</linearGradient>
<linearGradient id="paint5_linear_6009_7" x1="32.5126" y1="38.5693" x2="32.5126" y2="44.4713" gradientUnits="userSpaceOnUse">
<stop stop-color="#FFEDBE"/>
<stop offset="1" stop-color="#B09E71"/>
</linearGradient>
<linearGradient id="paint6_linear_6009_7" x1="21.2805" y1="11.0161" x2="21.2805" y2="37.8323" gradientUnits="userSpaceOnUse">
<stop stop-color="#FFEDBE"/>
<stop offset="1" stop-color="#B09E71"/>
</linearGradient>
</defs>
</svg>
