<svg width="124" height="68" viewBox="0 0 124 68" fill="none" xmlns="http://www.w3.org/2000/svg">
<path d="M21.8874 46.1944L22.1446 44.7603H18.7846L18.9778 43.7114C19.2563 42.1493 19.7908 41.4856 21.1822 41.4856C21.9099 41.4856 22.6803 41.7002 23.1947 41.9775L23.8157 40.8219C23.3025 40.5007 22.2098 40.1582 21.2474 40.1582C18.2726 40.1582 17.6089 41.9775 17.2877 43.7541L15.1805 55.6984H16.8504L18.5286 46.1944H21.8898H21.8874Z" fill="white"/>
<path d="M27.6664 44.4604C25.6326 44.4604 22.8711 45.3813 22.1008 49.8116C21.9728 50.4753 21.9301 51.1603 21.9301 51.7161C21.9301 54.3271 23.3215 55.6972 25.6551 55.6972C28.3099 55.6972 30.621 54.3484 31.3061 49.9822C31.4127 49.3612 31.4128 48.8267 31.4128 48.3336C31.4128 45.0376 29.0365 44.4593 27.6664 44.4593V44.4604ZM29.571 50.2821C29.1645 52.7437 27.901 54.4136 25.8685 54.4136C24.1132 54.4136 23.6213 53.1289 23.6213 51.6308C23.6213 51.0311 23.664 50.3899 23.7707 49.7902C24.1559 47.3926 25.4406 45.7665 27.4732 45.7665C29.0566 45.7665 29.699 46.9007 29.699 48.5493C29.699 49.0412 29.6776 49.6836 29.571 50.2833V50.2821Z" fill="white"/>
<path d="M38.9884 44.4604C37.6824 44.4604 36.6122 45.2308 36.0563 46.365L36.163 44.7591H34.7076L34.6009 46.2145L32.9736 55.3973H34.6436L35.8418 48.5481C36.163 47.1141 37.3185 45.8933 38.6886 45.8933C39.2231 45.8933 39.6735 46.0213 40.0373 46.2359L40.6797 44.9084C40.3372 44.6726 39.7375 44.4593 38.9884 44.4593V44.4604Z" fill="white"/>
<path d="M53.4359 44.4604C52.0871 44.4604 50.6744 45.1242 49.776 46.4302C49.4335 45.0388 48.4913 44.4604 47.0572 44.4604C45.7511 44.4604 44.4462 45.1028 43.4613 46.2797L43.5467 44.7603H42.1339L42.0059 46.3662L40.4213 55.3997H42.0913L43.2682 48.5292C43.504 47.1805 44.8302 45.789 46.4788 45.789C47.8276 45.789 48.1488 46.6021 48.1488 47.4803C48.1488 47.9082 48.1061 48.3799 48.0421 48.6999L46.8439 55.3997H48.5138L49.7333 48.464C49.9692 47.1793 51.3179 45.7879 52.9227 45.7879C54.2074 45.7879 54.5713 46.5582 54.5713 47.5644C54.5713 47.907 54.5073 48.2922 54.4433 48.6773L53.2664 55.3985H54.9363L56.1772 48.3348C56.2412 47.971 56.2839 47.5218 56.2839 47.1793C56.2839 45.424 55.3203 44.4604 53.437 44.4604H53.4359Z" fill="white"/>
<path d="M58.2714 51.8453C58.2714 54.4136 59.6415 55.677 61.8886 55.677C63.408 55.677 64.3289 55.056 65.1419 54.115C65.1633 54.115 65.2059 54.1363 65.2273 54.1363L65.1206 55.3997H66.6187L66.768 53.5378L68.2448 45.1467C66.9813 44.6335 65.5046 44.4616 64.6489 44.4616C60.5387 44.4616 58.2702 47.5656 58.2702 51.8465L58.2714 51.8453ZM65.4216 51.8453C65.1431 53.1727 64.0089 54.435 62.1896 54.435C60.3704 54.435 59.9425 53.0649 59.9425 51.6735C59.9425 49.2972 60.8848 45.7653 64.3953 45.7653C65.2948 45.7653 66.0652 45.9147 66.429 46.1079L65.4228 51.8442L65.4216 51.8453Z" fill="white"/>
<path d="M80.4036 44.4604C76.7224 44.4604 74.3887 47.7351 74.3887 51.4815C74.3887 53.9644 75.5443 55.6984 78.3271 55.6984C80.0397 55.6984 81.4098 55.0133 82.0735 54.5215L81.5164 53.3873C81.0673 53.6658 80.0397 54.3722 78.6056 54.3722C76.6572 54.3722 76.0373 53.0021 76.0373 51.504C76.0373 51.2682 76.0587 51.0335 76.08 50.7763C76.2519 50.7763 76.4439 50.7976 76.6584 50.7976C78.9055 50.7976 83.2089 50.2619 83.2089 46.7526C83.2089 45.3612 82.2027 44.4628 80.4047 44.4628L80.4036 44.4604ZM76.6785 49.597H76.2933C76.6359 47.9484 77.8767 45.7227 80.1464 45.7227C81.0673 45.7227 81.5805 46.2145 81.5805 47.0287C81.5805 49.2332 78.1766 49.597 76.6785 49.597Z" fill="white"/>
<path d="M92.3668 43.7114C92.6453 42.1493 93.1799 41.4856 94.5713 41.4856C95.299 41.4856 96.0693 41.7002 96.5837 41.9775L97.2047 40.8219C96.6916 40.5007 95.5988 40.1582 94.6364 40.1582C91.6616 40.1582 90.9979 41.9775 90.6767 43.7541L88.5754 55.664H90.2453L91.9176 46.1944H95.2788L95.536 44.7603H92.176L92.3692 43.7114H92.3668Z" fill="white"/>
<path d="M95.6628 55.7292H97.3316L99.216 45.091H97.5461L95.6628 55.7292Z" fill="white"/>
<path d="M99.1081 40.9381C98.3804 40.9381 97.7807 41.5165 97.7807 42.2442C97.7807 42.8012 98.1233 43.1864 98.7016 43.1864C99.408 43.1864 100.029 42.6293 100.029 41.8803C100.029 41.3446 99.6652 40.9381 99.1081 40.9381Z" fill="white"/>
<path d="M104.93 44.7911C102.768 44.7911 100.991 45.9467 100.991 48.0658C100.991 50.0569 102.489 50.5701 103.817 50.9979C104.994 51.3831 105.744 51.7683 105.744 52.8172C105.744 54.1659 104.61 54.7431 103.261 54.7431C101.998 54.7431 100.993 54.1861 100.414 53.7796L99.6652 54.9565C100.093 55.363 101.442 56.0267 103.24 56.0267C105.808 56.0267 107.393 54.8285 107.393 52.5588C107.393 50.8889 106.194 50.2904 104.888 49.8187C103.646 49.3695 102.641 49.0483 102.641 47.8062C102.641 46.5642 103.669 46.0723 104.888 46.0723C105.959 46.0723 106.814 46.5428 107.435 47.2279L108.399 46.3283C107.778 45.5366 106.494 44.7876 104.931 44.7876L104.93 44.7911Z" fill="white"/>
<path d="M112.592 40.9381C111.864 40.9381 111.265 41.5165 111.265 42.2442C111.265 42.8012 111.607 43.1864 112.185 43.1864C112.892 43.1864 113.513 42.6293 113.513 41.8803C113.513 41.3446 113.149 40.9381 112.592 40.9381Z" fill="white"/>
<path d="M109.147 55.7292H110.815L112.7 45.091H111.03L109.147 55.7292Z" fill="white"/>
<path d="M119.848 44.7911C117.814 44.7911 115.052 45.712 114.282 50.1422C114.154 50.8059 114.111 51.491 114.111 52.0468C114.111 54.6578 115.503 56.0279 117.836 56.0279C120.491 56.0279 122.802 54.6791 123.487 50.3129C123.594 49.6919 123.594 49.1573 123.594 48.6643C123.594 45.3683 121.218 44.7899 119.848 44.7899V44.7911ZM121.753 50.6139C121.347 53.0756 120.084 54.7455 118.051 54.7455C116.296 54.7455 115.804 53.4607 115.804 51.9627C115.804 51.363 115.847 50.7218 115.953 50.1221C116.338 47.7245 117.623 46.0984 119.656 46.0984C121.239 46.0984 121.881 47.2326 121.881 48.8812C121.881 49.373 121.86 50.0154 121.753 50.6151V50.6139Z" fill="white"/>
<path d="M16.7034 60.803L16.6086 61.3043H16.253C16.1369 61.3043 16.035 61.3209 15.9484 61.3553C15.8607 61.3896 15.792 61.4287 15.741 61.475C15.6901 61.5212 15.6438 61.5864 15.6035 61.6705C15.5621 61.7559 15.5324 61.8329 15.5123 61.9028C15.4933 61.9727 15.4708 62.0664 15.4471 62.1825L15.3677 62.5819H16.2246L16.1227 63.1046H15.2729L14.6198 66.4231C14.5274 66.8972 14.3721 67.2587 14.1517 67.5052C13.9313 67.7517 13.6006 67.875 13.1609 67.875C12.9677 67.875 12.8101 67.8584 12.6892 67.824L12.7911 67.3298H13.1395C13.2806 67.3298 13.4003 67.3084 13.4987 67.2646C13.5982 67.2207 13.6764 67.1532 13.7345 67.0607C13.7926 66.9683 13.8353 66.8794 13.8613 66.7917C13.8874 66.704 13.9158 66.5902 13.9443 66.4504L14.6056 63.1022H14.032L14.1268 62.5796H14.7004L14.7727 62.2015C14.8699 61.7274 15.0264 61.3683 15.2444 61.123C15.4625 60.8776 15.792 60.7567 16.2317 60.7567C16.4154 60.7567 16.573 60.771 16.7034 60.8006V60.803Z" fill="white"/>
<path d="M17.8009 62.5819L17.0898 66.2856H16.4071L17.0317 63.1046H16.4142L16.5161 62.5819H17.8009ZM18.1197 61.3908C18.1197 61.5366 18.0735 61.6539 17.9822 61.7428C17.8898 61.8329 17.776 61.8767 17.6409 61.8767C17.5153 61.8767 17.411 61.8353 17.3292 61.7535C17.2462 61.6717 17.2059 61.5721 17.2059 61.456C17.2059 61.3102 17.251 61.1929 17.3398 61.104C17.4287 61.0139 17.5425 60.9701 17.6776 60.9701C17.8127 60.9701 17.9147 61.0116 17.9976 61.0933C18.0794 61.1763 18.1209 61.2747 18.1209 61.3908H18.1197Z" fill="white"/>
<path d="M20.8646 62.6187L20.669 63.1556C20.4557 63.0738 20.221 63.0323 19.965 63.0323C19.7659 63.0323 19.6059 63.0833 19.4827 63.1852C19.3594 63.2871 19.2978 63.4151 19.2978 63.5704C19.2978 63.7055 19.3357 63.8145 19.4104 63.8975C19.485 63.9805 19.6486 64.0859 19.901 64.2163C20.1428 64.3419 20.317 64.477 20.4237 64.6193C20.5304 64.7627 20.5837 64.9404 20.5837 65.1526C20.5837 65.5153 20.4356 65.8092 20.1404 66.0344C19.8453 66.2596 19.4767 66.3722 19.037 66.3722C18.6838 66.3722 18.3496 66.3259 18.0356 66.2347L18.2465 65.6539C18.5416 65.7653 18.8273 65.821 19.1034 65.821C19.331 65.821 19.5111 65.7701 19.6438 65.6682C19.7766 65.5662 19.843 65.4311 19.843 65.2616C19.843 65.1313 19.8074 65.0258 19.7375 64.9452C19.6676 64.8646 19.5111 64.7603 19.2693 64.6287C19.0323 64.5031 18.8604 64.3645 18.7538 64.2151C18.6471 64.0646 18.5938 63.8833 18.5938 63.6699C18.5938 63.3262 18.7253 63.0442 18.9896 62.8237C19.2539 62.6033 19.6036 62.493 20.0385 62.493C20.3431 62.493 20.6193 62.5345 20.8658 62.6163L20.8646 62.6187Z" fill="white"/>
<path d="M22.8107 62.5819L22.0996 66.2856H21.4169L22.0415 63.1046H21.424L21.5259 62.5819H22.8107ZM23.1295 61.3908C23.1295 61.5366 23.0833 61.6539 22.992 61.7428C22.8996 61.8329 22.7858 61.8767 22.6507 61.8767C22.525 61.8767 22.4207 61.8353 22.339 61.7535C22.256 61.6717 22.2157 61.5721 22.2157 61.456C22.2157 61.3102 22.2607 61.1929 22.3496 61.104C22.4385 61.0139 22.5523 60.9701 22.6874 60.9701C22.8225 60.9701 22.9244 61.0116 23.0074 61.0933C23.0892 61.1763 23.1307 61.2747 23.1307 61.3908H23.1295Z" fill="white"/>
<path d="M26.9209 63.9259C26.9209 64.5991 26.7241 65.1751 26.3295 65.6539C25.9348 66.1327 25.4086 66.3733 24.7496 66.3733C24.2649 66.3733 23.9046 66.2477 23.6676 65.9953C23.4305 65.744 23.312 65.3956 23.312 64.9499C23.312 64.2767 23.5099 63.6996 23.907 63.2184C24.304 62.7372 24.8314 62.4954 25.4904 62.4954C25.9692 62.4954 26.3283 62.6222 26.5653 62.877C26.8024 63.1307 26.9209 63.4815 26.9209 63.9259ZM26.1944 63.9982C26.1944 63.3641 25.9301 63.0465 25.4027 63.0465C24.9914 63.0465 24.6607 63.2243 24.4118 63.5799C24.163 63.9354 24.0373 64.3751 24.0373 64.8978C24.0373 65.5129 24.304 65.8198 24.8361 65.8198C25.2427 65.8198 25.571 65.6444 25.8198 65.2936C26.0687 64.9428 26.1944 64.5102 26.1944 63.997V63.9982Z" fill="white"/>
<path d="M29.8317 62.5819L29.7369 63.1046H28.8658L28.445 65.2391C28.4012 65.4667 28.4142 65.616 28.4853 65.6859C28.5552 65.7559 28.6951 65.7914 28.9025 65.7914H29.2142L29.1194 66.2785C28.9404 66.3271 28.7413 66.3508 28.5244 66.3508C27.8809 66.3508 27.6261 66.0142 27.7624 65.341L28.1985 63.1046H27.6249L27.7268 62.5819H28.2862L28.656 61.4999H29.1715L28.9606 62.5819H29.8317Z" fill="white"/>
<path d="M33.3102 63.3879C33.3102 63.5526 33.2782 63.6996 33.2154 63.8276C33.1526 63.9556 33.0376 64.0859 32.8705 64.2163C32.7034 64.3467 32.4438 64.4498 32.0895 64.5245C31.7363 64.5991 31.2978 64.6442 30.7751 64.6584C30.7561 64.7745 30.7467 64.8978 30.7467 65.0293C30.7467 65.3102 30.813 65.5141 30.9458 65.6433C31.0785 65.7713 31.3025 65.8353 31.6178 65.8353C31.9958 65.8353 32.3609 65.7701 32.7141 65.6397V66.1766C32.336 66.307 31.9152 66.3722 31.4507 66.3722C30.9861 66.3722 30.6115 66.2679 30.3864 66.0593C30.1612 65.8507 30.0486 65.539 30.0486 65.123C30.0486 64.8089 30.0889 64.5008 30.1683 64.2009C30.2477 63.901 30.3674 63.6202 30.5274 63.3582C30.6874 63.0975 30.9067 62.8877 31.184 62.7301C31.4625 62.5725 31.7801 62.4942 32.1392 62.4942C32.5268 62.4942 32.8184 62.576 33.0139 62.7408C33.2095 62.9055 33.3078 63.1212 33.3078 63.3867L33.3102 63.3879ZM32.6204 63.4388C32.6204 63.3132 32.5742 63.2101 32.483 63.1307C32.3905 63.0513 32.2578 63.011 32.0835 63.011C31.7979 63.011 31.549 63.1153 31.3357 63.3227C31.1224 63.5313 30.9707 63.8098 30.8782 64.1582C32.0397 64.1582 32.6204 63.9188 32.6204 63.44V63.4388Z" fill="white"/>
<path d="M36.5126 62.5606L36.2874 63.1994C36.157 63.1556 36.048 63.1342 35.9603 63.1342C35.7624 63.1342 35.5241 63.3002 35.2492 63.632C34.973 63.9639 34.8012 64.3016 34.7336 64.6453L34.4065 66.2868H33.7381L34.4575 62.5831H34.973L34.8936 63.4258C35.3001 62.8059 35.6877 62.4966 36.0551 62.4966C36.2246 62.4966 36.3775 62.5179 36.5126 62.5618V62.5606Z" fill="white"/>
<path d="M40.0705 62.7491L39.3807 66.2856H38.8652L38.9446 65.4572C38.5712 66.0676 38.1221 66.3722 37.5935 66.3722C37.245 66.3722 36.9831 66.2584 36.8089 66.0308C36.6347 65.8033 36.547 65.4916 36.547 65.0945C36.547 64.7947 36.5896 64.4996 36.6738 64.208C36.7579 63.9165 36.8847 63.6439 37.0518 63.3879C37.219 63.1319 37.4453 62.9245 37.731 62.7668C38.0166 62.6092 38.3437 62.531 38.7111 62.531C39.1472 62.531 39.6 62.6033 40.0693 62.7491H40.0705ZM39.3013 63.2065C39.0833 63.1141 38.8675 63.0691 38.6554 63.0691C38.3401 63.0691 38.0735 63.1757 37.853 63.389C37.6326 63.6024 37.4797 63.8477 37.3955 64.1262C37.3102 64.4048 37.2687 64.6939 37.2687 64.9938C37.2687 65.5413 37.4358 65.8139 37.7701 65.8139C38.0462 65.8139 38.3224 65.6314 38.5973 65.2652C38.8735 64.9002 39.0548 64.4925 39.1425 64.0421L39.3025 63.2065H39.3013Z" fill="white"/>
<path d="M44.093 63.773C44.093 64.0729 44.0504 64.3692 43.9662 64.6619C43.8809 64.9547 43.7553 65.2284 43.5881 65.4821C43.421 65.7357 43.1935 65.9419 42.9055 66.0996C42.6175 66.2572 42.2892 66.3354 41.9218 66.3354C41.699 66.3354 41.4643 66.3093 41.2178 66.256L40.9132 67.7884H40.2447L41.2545 62.5819H41.7701L41.6907 63.4104C42.064 62.8 42.5156 62.4954 43.0489 62.4954C43.3973 62.4954 43.6593 62.6092 43.8335 62.8367C44.0077 63.0643 44.0954 63.376 44.0954 63.773H44.093ZM43.3677 63.875C43.3677 63.3333 43.2006 63.0619 42.8664 63.0619C42.5902 63.0619 42.3141 63.2444 42.0391 63.6095C41.763 63.9757 41.5816 64.3822 41.4939 64.8326L41.3339 65.661C41.552 65.7535 41.7701 65.7985 41.987 65.7985C42.2287 65.7985 42.4421 65.7381 42.6258 65.6172C42.8095 65.4963 42.9541 65.3375 43.0584 65.1419C43.1627 64.9464 43.2397 64.7401 43.2907 64.5244C43.3416 64.3087 43.3665 64.0919 43.3665 63.875H43.3677Z" fill="white"/>
<path d="M46.1624 62.5819L45.4513 66.2856H44.7686L45.3932 63.1046H44.7757L44.8776 62.5819H46.1624ZM46.4824 61.3908C46.4824 61.5366 46.4361 61.6539 46.3449 61.7428C46.2524 61.8329 46.1387 61.8767 46.0035 61.8767C45.8779 61.8767 45.7736 61.8353 45.6918 61.7535C45.6089 61.6717 45.5686 61.5721 45.5686 61.456C45.5686 61.3102 45.6136 61.1929 45.7025 61.104C45.7914 61.0139 45.9052 60.9701 46.0403 60.9701C46.1754 60.9701 46.2773 61.0116 46.3603 61.0933C46.4421 61.1763 46.4835 61.2747 46.4835 61.3908H46.4824Z" fill="white"/>
<path d="M50.1932 62.7491L49.5034 66.2856H48.9878L49.0672 65.4572C48.6939 66.0676 48.2447 66.3722 47.7161 66.3722C47.3677 66.3722 47.1058 66.2584 46.9315 66.0308C46.7573 65.8033 46.6696 65.4916 46.6696 65.0945C46.6696 64.7947 46.7123 64.4996 46.7964 64.208C46.8806 63.9165 47.0074 63.6439 47.1745 63.3879C47.3416 63.1319 47.568 62.9245 47.8536 62.7668C48.1392 62.6092 48.4664 62.531 48.8338 62.531C49.2699 62.531 49.7227 62.6033 50.192 62.7491H50.1932ZM49.4228 63.2065C49.2047 63.1141 48.989 63.0691 48.7769 63.0691C48.4616 63.0691 48.195 63.1757 47.9745 63.389C47.7541 63.6024 47.6012 63.8477 47.517 64.1262C47.4317 64.4048 47.3902 64.6939 47.3902 64.9938C47.3902 65.5413 47.5573 65.8139 47.8915 65.8139C48.1677 65.8139 48.4438 65.6314 48.7188 65.2652C48.995 64.9002 49.1763 64.4925 49.264 64.0421L49.424 63.2065H49.4228Z" fill="white"/>
<path d="M51.6166 65.8353C51.6166 66.0486 51.5241 66.2975 51.3404 66.5831C51.1567 66.8687 50.864 67.1686 50.4622 67.4839L50.1576 67.1864C50.5784 66.813 50.7893 66.525 50.7893 66.3224C50.7893 66.2785 50.7727 66.2133 50.7384 66.1268C50.704 66.0403 50.6874 65.9573 50.6874 65.8803C50.6874 65.7452 50.7324 65.6243 50.8213 65.5176C50.9102 65.411 51.0264 65.3576 51.1662 65.3576C51.3061 65.3576 51.4104 65.4015 51.4933 65.488C51.5751 65.5757 51.6166 65.6919 51.6166 65.8364V65.8353Z" fill="white"/>
<path d="M58.1446 63.773C58.1446 64.0729 58.1019 64.3692 58.0178 64.6619C57.9324 64.9547 57.8068 65.2284 57.6397 65.4821C57.4726 65.7357 57.245 65.9419 56.957 66.0996C56.669 66.2572 56.3407 66.3354 55.9733 66.3354C55.7505 66.3354 55.5158 66.3093 55.2693 66.256L54.9647 67.7884H54.2963L55.3061 62.5819H55.8216L55.7422 63.4104C56.1156 62.8 56.5671 62.4954 57.1004 62.4954C57.4489 62.4954 57.7108 62.6092 57.885 62.8367C58.0593 63.0643 58.147 63.376 58.147 63.773H58.1446ZM57.4181 63.875C57.4181 63.3333 57.251 63.0619 56.9167 63.0619C56.6406 63.0619 56.3644 63.2444 56.0895 63.6095C55.8133 63.9757 55.632 64.3822 55.5443 64.8326L55.3843 65.661C55.6024 65.7535 55.8204 65.7985 56.0373 65.7985C56.2791 65.7985 56.4924 65.7381 56.6761 65.6172C56.8598 65.4963 57.0044 65.3375 57.1087 65.1419C57.213 64.9464 57.2901 64.7401 57.341 64.5244C57.392 64.3087 57.4169 64.0919 57.4169 63.875H57.4181Z" fill="white"/>
<path d="M60.2139 62.5819L59.5028 66.2856H58.8201L59.4447 63.1046H58.8273L58.9292 62.5819H60.2139ZM60.5327 61.3908C60.5327 61.5366 60.4865 61.6539 60.3953 61.7428C60.3028 61.8329 60.189 61.8767 60.0539 61.8767C59.9283 61.8767 59.824 61.8353 59.7422 61.7535C59.6593 61.6717 59.619 61.5721 59.619 61.456C59.619 61.3102 59.664 61.1929 59.7529 61.104C59.8418 61.0139 59.9556 60.9701 60.0907 60.9701C60.2258 60.9701 60.3277 61.0116 60.4107 61.0933C60.4924 61.1763 60.5339 61.2747 60.5339 61.3908H60.5327Z" fill="white"/>
<path d="M62.3769 60.8397L61.4987 65.3778C61.4453 65.6444 61.5176 65.7772 61.7167 65.7772H62L61.8981 66.2856C61.7428 66.3247 61.5911 66.3437 61.4406 66.3437C60.9084 66.3437 60.6927 66.0699 60.7947 65.5236L61.7096 60.8397H62.3781H62.3769Z" fill="white"/>
<path d="M66.2335 62.7491L65.5437 66.2856H65.0281L65.1075 65.4572C64.7342 66.0676 64.285 66.3722 63.7564 66.3722C63.408 66.3722 63.1461 66.2584 62.9718 66.0308C62.7976 65.8033 62.7099 65.4916 62.7099 65.0945C62.7099 64.7947 62.7526 64.4996 62.8367 64.208C62.9209 63.9165 63.0477 63.6439 63.2148 63.3879C63.3819 63.1319 63.6083 62.9245 63.8939 62.7668C64.1795 62.6092 64.5067 62.531 64.8741 62.531C65.3102 62.531 65.763 62.6033 66.2323 62.7491H66.2335ZM65.4631 63.2065C65.245 63.1141 65.0293 63.0691 64.8172 63.0691C64.5019 63.0691 64.2352 63.1757 64.0148 63.389C63.7944 63.6024 63.6415 63.8477 63.5573 64.1262C63.472 64.4048 63.4305 64.6939 63.4305 64.9938C63.4305 65.5413 63.5976 65.8139 63.9318 65.8139C64.208 65.8139 64.4841 65.6314 64.7591 65.2652C65.0353 64.9002 65.2166 64.4925 65.3043 64.0421L65.4643 63.2065H65.4631Z" fill="white"/>
<path d="M69.1087 62.5819L69.0139 63.1046H68.1428L67.7221 65.2391C67.6782 65.4667 67.6913 65.616 67.7624 65.6859C67.8323 65.7559 67.9721 65.7914 68.1795 65.7914H68.4913L68.3964 66.2785C68.2175 66.3271 68.0184 66.3508 67.8015 66.3508C67.1579 66.3508 66.9031 66.0142 67.0394 65.341L67.4755 63.1046H66.9019L67.0038 62.5819H67.5633L67.933 61.4999H68.4486L68.2376 62.5819H69.1087Z" fill="white"/>
<path d="M72.5861 63.3879C72.5861 63.5526 72.5541 63.6996 72.4913 63.8276C72.4284 63.9556 72.3135 64.0859 72.1464 64.2163C71.9792 64.3467 71.7197 64.4498 71.3653 64.5245C71.0121 64.5991 70.5736 64.6442 70.051 64.6584C70.032 64.7745 70.0225 64.8978 70.0225 65.0293C70.0225 65.3102 70.0889 65.5141 70.2216 65.6433C70.3544 65.7713 70.5784 65.8353 70.8936 65.8353C71.2717 65.8353 71.6367 65.7701 71.9899 65.6397V66.1766C71.6118 66.307 71.1911 66.3722 70.7265 66.3722C70.2619 66.3722 69.8874 66.2679 69.6622 66.0593C69.437 65.8507 69.3244 65.539 69.3244 65.123C69.3244 64.8089 69.3647 64.5008 69.4441 64.2009C69.5235 63.901 69.6433 63.6202 69.8033 63.3582C69.9633 63.0975 70.1825 62.8877 70.4598 62.7301C70.7384 62.5725 71.056 62.4942 71.4151 62.4942C71.8027 62.4942 72.0942 62.576 72.2898 62.7408C72.4853 62.9055 72.5837 63.1212 72.5837 63.3867L72.5861 63.3879ZM71.8963 63.4388C71.8963 63.3132 71.8501 63.2101 71.7588 63.1307C71.6664 63.0513 71.5336 63.011 71.3594 63.011C71.0738 63.011 70.8249 63.1153 70.6115 63.3227C70.3982 63.5313 70.2465 63.8098 70.1541 64.1582C71.3155 64.1582 71.8963 63.9188 71.8963 63.44V63.4388Z" fill="white"/>
<path d="M75.6439 62.6187L75.4483 63.1556C75.235 63.0738 75.0003 63.0323 74.7443 63.0323C74.5452 63.0323 74.3852 63.0833 74.2619 63.1852C74.1387 63.2871 74.077 63.4151 74.077 63.5704C74.077 63.7055 74.115 63.8145 74.1896 63.8975C74.2643 63.9805 74.4279 64.0859 74.6803 64.2163C74.9221 64.3419 75.0963 64.477 75.203 64.6193C75.3096 64.7627 75.363 64.9404 75.363 65.1526C75.363 65.5153 75.2148 65.8092 74.9197 66.0344C74.6246 66.2596 74.256 66.3722 73.8163 66.3722C73.4631 66.3722 73.1289 66.3259 72.8148 66.2347L73.0258 65.6539C73.3209 65.7653 73.6065 65.821 73.8827 65.821C74.1102 65.821 74.2904 65.7701 74.4231 65.6682C74.5559 65.5662 74.6222 65.4311 74.6222 65.2616C74.6222 65.1313 74.5867 65.0258 74.5167 64.9452C74.4468 64.8646 74.2904 64.7603 74.0486 64.6287C73.8116 64.5031 73.6397 64.3645 73.533 64.2151C73.4264 64.0646 73.373 63.8833 73.373 63.6699C73.373 63.3262 73.5046 63.0442 73.7689 62.8237C74.0332 62.6033 74.3828 62.493 74.8178 62.493C75.1224 62.493 75.3985 62.5345 75.645 62.6163L75.6439 62.6187Z" fill="white"/>
<path d="M81.315 63.3879C81.315 63.5526 81.283 63.6996 81.2201 63.8276C81.1573 63.9556 81.0424 64.0859 80.8753 64.2163C80.7081 64.3467 80.4486 64.4498 80.0942 64.5245C79.741 64.5991 79.3025 64.6442 78.7798 64.6584C78.7609 64.7745 78.7514 64.8978 78.7514 65.0293C78.7514 65.3102 78.8178 65.5141 78.9505 65.6433C79.0833 65.7713 79.3073 65.8353 79.6225 65.8353C80.0006 65.8353 80.3656 65.7701 80.7188 65.6397V66.1766C80.3407 66.307 79.92 66.3722 79.4554 66.3722C78.9908 66.3722 78.6163 66.2679 78.3911 66.0593C78.1659 65.8507 78.0533 65.539 78.0533 65.123C78.0533 64.8089 78.0936 64.5008 78.173 64.2009C78.2524 63.901 78.3721 63.6202 78.5321 63.3582C78.6921 63.0975 78.9114 62.8877 79.1887 62.7301C79.4673 62.5725 79.7849 62.4942 80.144 62.4942C80.5316 62.4942 80.8231 62.576 81.0187 62.7408C81.2142 62.9055 81.3126 63.1212 81.3126 63.3867L81.315 63.3879ZM80.6252 63.4388C80.6252 63.3132 80.579 63.2101 80.4877 63.1307C80.3953 63.0513 80.2625 63.011 80.0883 63.011C79.8027 63.011 79.5538 63.1153 79.3404 63.3227C79.1271 63.5313 78.9754 63.8098 78.883 64.1582C80.0444 64.1582 80.6252 63.9188 80.6252 63.44V63.4388Z" fill="white"/>
<path d="M89.4252 63.5194C89.4252 63.645 89.4062 63.805 89.3671 63.9982L88.9238 66.2856H88.2554L88.6761 64.1073C88.7153 63.9034 88.7342 63.7363 88.7342 63.6059C88.7342 63.2433 88.5884 63.0608 88.2981 63.0608C88.0361 63.0608 87.7671 63.2397 87.4886 63.5976C87.2101 63.9556 87.0299 64.3431 86.9481 64.7591L86.6507 66.2845H85.9751L86.403 64.1061C86.4373 63.9319 86.4539 63.7648 86.4539 63.6048C86.4539 63.4258 86.4207 63.2895 86.3556 63.1982C86.2904 63.107 86.1778 63.0608 86.0178 63.0608C85.7559 63.0608 85.4868 63.2397 85.2083 63.5976C84.9298 63.9556 84.752 64.3431 84.675 64.7591L84.3704 66.2845H83.7019L84.4213 62.5808H84.9369L84.8575 63.4092C85.0222 63.1378 85.2237 62.9173 85.4643 62.7479C85.7037 62.5784 85.9514 62.4942 86.2086 62.4942C86.7893 62.4942 87.0975 62.8012 87.1307 63.4163C87.2954 63.1449 87.4969 62.9233 87.7375 62.7514C87.9769 62.5796 88.2246 62.4942 88.4818 62.4942C89.1111 62.4942 89.4252 62.8356 89.4252 63.5182V63.5194Z" fill="white"/>
<path d="M93.8187 62.5819L93.1076 66.2856H92.592L92.6714 65.4572C92.5067 65.7286 92.3016 65.949 92.0539 66.1185C91.8074 66.288 91.5407 66.3722 91.2551 66.3722C90.5914 66.3722 90.2607 66.0308 90.2607 65.3482C90.2607 65.1976 90.2773 65.0388 90.3117 64.8693L90.755 62.5819H91.4305L91.0027 64.7674C90.9683 64.9807 90.9517 65.1455 90.9517 65.2616C90.9517 65.629 91.1164 65.8139 91.4459 65.8139C91.7363 65.8139 92.0231 65.635 92.3064 65.277C92.5896 64.9191 92.7722 64.5292 92.8551 64.1084L93.1526 62.5831H93.821L93.8187 62.5819Z" fill="white"/>
<path d="M96.8824 62.6187L96.6868 63.1556C96.4735 63.0738 96.2388 63.0323 95.9828 63.0323C95.7837 63.0323 95.6237 63.0833 95.5004 63.1852C95.3772 63.2871 95.3155 63.4151 95.3155 63.5704C95.3155 63.7055 95.3535 63.8145 95.4281 63.8975C95.5028 63.9805 95.6664 64.0859 95.9188 64.2163C96.1606 64.3419 96.3348 64.477 96.4415 64.6193C96.5481 64.7627 96.6015 64.9404 96.6015 65.1526C96.6015 65.5153 96.4533 65.8092 96.1582 66.0344C95.8631 66.2596 95.4945 66.3722 95.0548 66.3722C94.7016 66.3722 94.3674 66.3259 94.0533 66.2347L94.2643 65.6539C94.5594 65.7653 94.845 65.821 95.1212 65.821C95.3487 65.821 95.5289 65.7701 95.6616 65.6682C95.7944 65.5662 95.8607 65.4311 95.8607 65.2616C95.8607 65.1313 95.8252 65.0258 95.7553 64.9452C95.6853 64.8646 95.5289 64.7603 95.2871 64.6287C95.0501 64.5031 94.8782 64.3645 94.7716 64.2151C94.6649 64.0646 94.6115 63.8833 94.6115 63.6699C94.6115 63.3262 94.7431 63.0442 95.0074 62.8237C95.2717 62.6033 95.6213 62.493 96.0563 62.493C96.3609 62.493 96.637 62.5345 96.8836 62.6163L96.8824 62.6187Z" fill="white"/>
<path d="M100.368 62.7135L100.121 63.2219C99.875 63.12 99.6521 63.069 99.453 63.069C99.2444 63.069 99.0572 63.1129 98.8901 63.1994C98.723 63.2859 98.589 63.395 98.4871 63.5265C98.3852 63.6569 98.2998 63.8086 98.2299 63.9805C98.16 64.1523 98.1114 64.3182 98.0841 64.4782C98.0569 64.6382 98.0438 64.7935 98.0438 64.9428C98.0438 65.5046 98.3152 65.7855 98.8569 65.7855C99.1425 65.7855 99.4258 65.7298 99.7067 65.6184L99.7138 66.1707C99.3748 66.2963 99.0358 66.3591 98.6969 66.3591C98.2323 66.3591 97.8862 66.2453 97.6587 66.0178C97.4311 65.7902 97.3173 65.4631 97.3173 65.0376C97.3173 64.6122 97.3932 64.2187 97.5461 63.843C97.699 63.4684 97.9395 63.1532 98.269 62.8996C98.5985 62.6459 98.9849 62.5179 99.4305 62.5179C99.7837 62.5179 100.097 62.5831 100.367 62.7135H100.368Z" fill="white"/>
<path d="M104.267 62.5819L103.556 66.2856H103.041L103.12 65.4572C102.955 65.7286 102.75 65.949 102.503 66.1185C102.256 66.288 101.989 66.3722 101.704 66.3722C101.04 66.3722 100.709 66.0308 100.709 65.3482C100.709 65.1976 100.726 65.0388 100.76 64.8693L101.204 62.5819H101.879L101.451 64.7674C101.417 64.9807 101.4 65.1455 101.4 65.2616C101.4 65.629 101.565 65.8139 101.895 65.8139C102.185 65.8139 102.472 65.635 102.755 65.277C103.038 64.9191 103.221 64.5292 103.304 64.1084L103.601 62.5831H104.27L104.267 62.5819Z" fill="white"/>
<path d="M106.431 60.8397L105.553 65.3778C105.5 65.6444 105.572 65.7772 105.771 65.7772H106.055L105.953 66.2856C105.797 66.3247 105.646 66.3437 105.495 66.3437C104.963 66.3437 104.747 66.0699 104.849 65.5236L105.764 60.8397H106.433H106.431Z" fill="white"/>
<path d="M110.287 62.7491L109.597 66.2856H109.081L109.161 65.4572C108.788 66.0676 108.338 66.3722 107.81 66.3722C107.461 66.3722 107.199 66.2584 107.025 66.0308C106.851 65.8033 106.763 65.4916 106.763 65.0945C106.763 64.7947 106.806 64.4996 106.89 64.208C106.974 63.9165 107.101 63.6439 107.268 63.3879C107.435 63.1319 107.662 62.9245 107.947 62.7668C108.233 62.6092 108.56 62.531 108.927 62.531C109.364 62.531 109.816 62.6033 110.286 62.7491H110.287ZM109.518 63.2065C109.3 63.1141 109.084 63.0691 108.872 63.0691C108.556 63.0691 108.29 63.1757 108.069 63.389C107.849 63.6024 107.696 63.8477 107.612 64.1262C107.527 64.4048 107.485 64.6939 107.485 64.9938C107.485 65.5413 107.652 65.8139 107.986 65.8139C108.263 65.8139 108.539 65.6314 108.814 65.2652C109.09 64.9002 109.271 64.4925 109.359 64.0421L109.519 63.2065H109.518Z" fill="white"/>
<path d="M112.495 66.9541C112.495 67.1236 112.425 67.261 112.284 67.3677C112.143 67.4744 111.921 67.5277 111.615 67.5277C111.344 67.5277 111.119 67.4957 110.94 67.4329L111.019 67.0264H111.688C111.843 67.0264 111.92 66.9825 111.92 66.896C111.92 66.8569 111.903 66.7656 111.869 66.6199L111.79 66.3224C111.137 66.2015 110.809 65.7724 110.809 65.0376C110.809 64.6169 110.885 64.2187 111.038 63.843C111.191 63.4684 111.432 63.1532 111.761 62.8996C112.091 62.6459 112.477 62.5179 112.923 62.5179C113.276 62.5179 113.589 62.5831 113.859 62.7135L113.612 63.2219C113.366 63.12 113.143 63.069 112.944 63.069C112.735 63.069 112.548 63.1129 112.381 63.1994C112.214 63.2859 112.08 63.395 111.978 63.5265C111.876 63.6569 111.791 63.8086 111.721 63.9805C111.651 64.1523 111.602 64.3182 111.575 64.4782C111.548 64.6382 111.535 64.7935 111.535 64.9428C111.535 65.5046 111.806 65.7855 112.348 65.7855C112.633 65.7855 112.917 65.7298 113.198 65.6184L113.205 66.1707C112.958 66.2679 112.67 66.3283 112.341 66.352L112.406 66.5559C112.464 66.7253 112.494 66.8581 112.494 66.9553L112.495 66.9541Z" fill="white"/>
<path d="M117.592 62.749L116.903 66.2856H116.387L116.466 65.4572C116.093 66.0676 115.644 66.3722 115.115 66.3722C114.767 66.3722 114.505 66.2584 114.331 66.0308C114.156 65.8033 114.069 65.4916 114.069 65.0945C114.069 64.7947 114.111 64.4996 114.196 64.208C114.28 63.9164 114.407 63.6439 114.574 63.3879C114.741 63.1319 114.967 62.9244 115.253 62.7668C115.538 62.6092 115.865 62.531 116.233 62.531C116.669 62.531 117.122 62.6033 117.591 62.749H117.592ZM116.822 63.2065C116.604 63.1141 116.388 63.069 116.176 63.069C115.861 63.069 115.594 63.1757 115.374 63.389C115.153 63.6024 115 63.8477 114.916 64.1262C114.831 64.4047 114.789 64.6939 114.789 64.9938C114.789 65.5413 114.956 65.8139 115.291 65.8139C115.567 65.8139 115.843 65.6314 116.118 65.2652C116.394 64.9002 116.575 64.4924 116.663 64.0421L116.823 63.2065H116.822ZM117.752 61.1953C117.539 61.6065 117.249 61.8127 116.881 61.8127C116.702 61.8127 116.536 61.7606 116.383 61.6563C116.231 61.552 116.104 61.4999 116.002 61.4999C115.828 61.4999 115.665 61.6207 115.516 61.8625L115.196 61.616C115.419 61.2 115.711 60.9914 116.074 60.9914C116.248 60.9914 116.411 61.0436 116.561 61.1479C116.712 61.2522 116.835 61.3043 116.931 61.3043C117.11 61.3043 117.275 61.1858 117.425 60.9487L117.752 61.1953Z" fill="white"/>
<path d="M121.731 63.9259C121.731 64.5991 121.534 65.1751 121.14 65.6539C120.745 66.1327 120.219 66.3733 119.56 66.3733C119.075 66.3733 118.715 66.2477 118.478 65.9953C118.241 65.744 118.122 65.3956 118.122 64.9499C118.122 64.2767 118.32 63.6996 118.717 63.2184C119.114 62.7372 119.641 62.4954 120.3 62.4954C120.779 62.4954 121.138 62.6222 121.375 62.877C121.612 63.1307 121.731 63.4815 121.731 63.9259ZM121.004 63.9982C121.004 63.3641 120.74 63.0465 120.213 63.0465C119.801 63.0465 119.471 63.2243 119.222 63.5799C118.973 63.9354 118.847 64.3751 118.847 64.8978C118.847 65.5129 119.114 65.8198 119.646 65.8198C120.053 65.8198 120.381 65.6444 120.63 65.2936C120.879 64.9428 121.004 64.5102 121.004 63.997V63.9982Z" fill="white"/>
<path d="M0.434383 35.6889C0.434383 35.6083 0.434383 35.5277 0.434383 35.4471C0.434383 31.6047 0.445049 27.7624 0.420161 23.92C0.41779 23.4684 0.583716 23.1852 0.89542 22.9232C1.60061 22.333 2.34135 21.7961 3.18164 21.411C3.99112 21.04 4.83498 20.7828 5.71675 20.6453C6.18372 20.5718 6.64831 20.5078 7.12357 20.5102C7.97572 20.5138 8.79349 20.6963 9.59942 20.9381C11.421 21.4844 13.1775 22.2181 14.9896 22.7929C16.6999 23.3345 18.4113 23.8738 20.1796 24.1938C20.9393 24.3312 21.7049 24.4427 22.4741 24.5232C23.0892 24.5872 23.7008 24.6785 24.3159 24.7354C24.8729 24.7875 25.4288 24.8421 25.9846 24.9167C26.8474 25.0317 27.7008 25.2012 28.5399 25.4275C29.5413 25.6978 30.5156 26.0438 31.4365 26.5321C31.7908 26.7206 32.1215 26.9422 32.4237 27.203C32.6916 27.4341 32.752 27.7398 32.6975 28.0705C32.4308 29.6752 31.8702 31.1662 30.9387 32.5055C29.7452 34.2204 28.1393 35.3594 26.1245 35.9247C25.1289 36.2032 24.1179 36.3324 23.0856 36.3194C22.3236 36.3099 21.5603 36.3265 20.7994 36.272C18.9126 36.1369 17.0744 35.7778 15.3037 35.0975C13.4738 34.3947 11.6996 33.5627 9.88149 32.8326C9.08031 32.5102 8.28742 32.1547 7.43409 31.9852C6.19794 31.7387 4.99972 31.8358 3.84535 32.3834C3.07972 32.7472 2.41127 33.245 1.82816 33.8471C1.29483 34.3982 0.827864 35.011 0.434383 35.6912V35.6889Z" fill="white"/>
<path d="M16.1251 21.6705C15.3037 21.4809 14.6602 21.0874 14.0723 20.5956C12.9571 19.664 12.1369 18.5073 11.5289 17.1964C11.107 16.2874 10.8142 15.3381 10.6696 14.3437C10.5843 13.7582 10.5298 13.1727 10.5381 12.5801C10.5523 11.5111 10.7182 10.4681 11.0193 9.44296C11.3535 8.30044 11.8181 7.21482 12.4652 6.21452C12.7734 5.73807 13.1277 5.29363 13.5129 4.87052C14.6258 3.64741 15.9662 2.74667 17.4465 2.04148C18.7254 1.4323 20.0694 1.00919 21.4513 0.699853C22.1565 0.542223 22.8676 0.422519 23.5799 0.318223C24.0895 0.243556 24.6074 0.226964 25.1194 0.16889C25.6587 0.107261 26.1991 0.13926 26.7384 0.123853C26.9055 0.119112 26.9707 0.157037 26.9695 0.343111C26.9648 5.55674 26.9648 10.7716 26.9683 15.9852C26.9683 16.1476 26.9304 16.2234 26.7562 16.1902C26.3485 16.1132 25.9313 16.1274 25.5212 16.1156C24.5683 16.0871 23.6131 16.099 22.659 16.1084C21.5449 16.1191 20.4368 16.2044 19.3322 16.3656C18.5559 16.4794 17.7926 16.6359 17.0542 16.899C16.5197 17.0886 16.0148 17.3339 15.6285 17.7653C15.2433 18.1967 15.0288 18.6921 14.9837 19.2836C14.9233 20.08 15.2196 20.7236 15.7185 21.3007C15.8228 21.4216 15.9568 21.5176 16.1274 21.6693L16.1251 21.6705Z" fill="white"/>
<path d="M32.7058 27.0098C32.0314 25.8127 30.9671 25.123 29.7618 24.6027C28.4297 24.0278 27.0252 23.728 25.603 23.491C24.7686 23.3511 23.9295 23.2421 23.0904 23.139C21.7902 22.9801 20.4842 22.8593 19.2065 22.557C18.4587 22.3804 17.7191 22.173 17.0495 21.7701C16.5422 21.4655 16.278 21.0009 16.1571 20.4498C16.035 19.8939 16.1417 19.3641 16.4344 18.877C16.726 18.3899 17.1905 18.1161 17.6919 17.9028C18.3828 17.6089 19.1177 17.4892 19.8596 17.3944C21.1787 17.2249 22.5037 17.245 23.8264 17.2747C24.6501 17.2936 25.475 17.3576 26.2975 17.4311C26.8474 17.4809 27.3962 17.5449 27.9485 17.5804C28.2412 17.5994 28.5328 17.6516 28.822 17.7001C29.1064 17.7476 29.1467 17.7215 29.1467 17.437C29.1467 15.5751 29.1467 13.7132 29.1467 11.8513C29.1467 11.5716 29.2071 11.5218 29.475 11.5787C30.7799 11.8572 31.6759 12.6572 32.3301 13.7843C32.6228 14.288 32.7188 14.813 32.7165 15.395C32.6999 19.1852 32.7082 22.9754 32.7082 26.7656V27.0074L32.7058 27.0098Z" fill="white"/>
<path d="M8.17957 40.1274C8.17957 41.9076 8.17957 43.6877 8.17957 45.4679C8.17957 45.7345 8.16772 45.7428 7.92002 45.661C6.36742 45.1479 4.8895 44.4758 3.53957 43.5455C2.60209 42.8996 1.76179 42.1505 1.16328 41.1644C0.715276 40.4261 0.442683 39.6356 0.430831 38.7573C0.418979 37.923 0.541053 37.1182 0.904905 36.368C1.42876 35.2883 2.29394 34.5855 3.41157 34.1766C4.13454 33.9111 4.88002 33.7689 5.65039 33.8293C6.48831 33.8945 7.28831 34.128 8.05987 34.4599C8.18668 34.5144 8.18194 34.6293 8.18194 34.7443C8.18076 35.901 8.18194 37.059 8.18194 38.2157C8.18194 38.8533 8.18194 39.491 8.18194 40.1298L8.17957 40.1274Z" fill="white"/>
</svg>
